<?xml version="1.0" encoding="utf-8"?>
<!DOCTYPE svg PUBLIC "-//W3C//DTD SVG 1.0//EN" "http://www.w3.org/TR/2001/REC-SVG-20010904/DTD/svg10.dtd">
<svg version="1.0" xmlns="http://www.w3.org/2000/svg" width="680px" height="654px" viewBox="0 0 680 654" preserveAspectRatio="xMidYMid meet">
 <g fill="#dee0db">
 </g>
 <g fill="#e4d1c4">
 </g>
 <g fill="#e4d1c4" stroke="#e4d1c4" stroke-width="1">
 </g>
 <g fill="#e4d1c4" stroke="#e4d1c4" stroke-width="1">
 </g>
 <g fill="#ff8205">
  <path d="M314.3 336.3 c-10 -0.3 -12.3 -0.6 -12.3 -1.8 0 -2.5 -7.1 -9.5 -17 -16.8 -29.1 -21.3 -40.2 -41.8 -38.8 -72 0.4 -10.2 2.4 -15.5 9.5 -25.4 3.2 -4.6 4.2 -5.3 7 -5.3 l3.3 0 0 6.8 c0 12.5 6.9 28.5 17.2 39.7 4.7 5.1 7.8 7.4 14.2 10.5 9.2 4.5 11.2 4.9 10.1 2.3 -3.1 -8.1 -4.4 -14.2 -5 -22.3 -0.9 -11.8 0.5 -20.1 5 -30 5.9 -13 10.3 -25.4 11.6 -32.5 1.5 -8.6 0.6 -26.4 -1.5 -32.4 -0.9 -2.4 -1.6 -6.1 -1.6 -8.2 0 -3.7 0.1 -3.9 3.3 -3.9 2.9 0 4 1 12.9 12.8 11.1 14.6 16.2 25.1 20.2 41.3 6.7 27.5 6 51.6 -2.1 69.8 -1.3 3 -2.1 5.6 -1.9 5.9 0.9 0.8 10.5 -3 14.3 -5.7 4.4 -3.2 16.6 -16.4 19.4 -21 4.1 -6.8 7.9 -17.6 8.5 -24.2 l0.7 -6.9 3.1 0 c2.7 0 3.6 0.8 6.8 5.8 6 9.5 7 12.7 7.5 24.7 0.4 9.1 0.1 12.5 -1.7 19.5 -5 19.4 -17.9 37.5 -36 50.2 -11.7 8.3 -15 11.6 -15 15 0 5 -0.8 5.1 -41.7 4.1z"/>
 </g>
 <g fill="#96432e">
  <path d="M450.7 598 c-1.9 -1.6 -4.6 -5.7 -6.1 -9.1 -2.7 -5.8 -2.8 -6.7 -2.4 -19.3 0.3 -12.9 0.4 -13.4 4 -20.7 4.2 -8.6 13.7 -18.7 20.8 -22.2 3.5 -1.7 6.2 -2.2 12.7 -2.2 7.4 0 8.5 0.3 12.4 3 7.7 5.4 8.4 7.6 8.4 26.5 0 16.5 0 16.5 -3 21.9 -1.7 3.1 -5.1 7.1 -7.8 9.3 -6.7 5.2 -12.2 5.3 -19.3 0.3 -6.9 -4.9 -8.4 -8.1 -8.4 -18.5 0 -9.2 1.1 -11.9 6.2 -15.9 3.4 -2.7 9.3 -2.8 10.8 -0.2 1.8 3.4 1.2 12.8 -1.1 17.3 -2.6 5 -1.3 7.1 2.8 4.8 4.5 -2.5 6.8 -8.4 6.8 -17.2 0 -8.8 -2 -12.6 -7.3 -14.2 -4.4 -1.2 -8.5 0.7 -14.7 7 -9.2 9.1 -12.6 20.5 -9.1 29.8 1.6 4.2 11.2 14.6 13.5 14.6 0.6 0 1.1 1.5 1.1 3.4 0 3 -0.4 3.4 -3.1 4 -1.7 0.3 -5.6 0.6 -8.5 0.6 -4.5 0 -5.9 -0.5 -8.7 -3z"/>
  <path d="M183.8 598.8 c-2.3 -0.8 -2.8 -1.6 -2.8 -4.3 0 -3 0.5 -3.5 5.6 -6.1 12.6 -6.4 15.6 -16.5 9.2 -30.6 -4.3 -9.3 -11 -15.2 -19.9 -17.3 -4.8 -1.2 -12.9 8.4 -12.9 15.2 0.1 4.6 3.7 11.4 9.5 17.4 4.9 5.2 5.5 6.2 5.5 10.1 0 5.3 -1.3 6.8 -6 6.8 -4.5 0 -9.5 -4 -14.2 -11.2 -5.4 -8.4 -7.1 -15.5 -6.7 -28.9 0.5 -13.2 1.9 -16.6 9.1 -21.5 3.8 -2.5 5.3 -2.9 13.4 -3.2 8.3 -0.4 9.6 -0.1 14.4 2.3 11.3 5.7 18.8 15.7 22.6 29.9 1.9 7.2 1.8 26.6 -0.1 31.4 -1.9 4.3 -5 7.9 -8.7 9.8 -3.1 1.6 -13.9 1.8 -18 0.2z"/>
  <path d="M178.3 577.8 c-0.6 -0.7 -2.9 -5 -5.2 -9.4 -3.7 -7.1 -4.2 -8.9 -3.9 -13.5 l0.3 -5.4 5.4 -0.3 c4.4 -0.3 6 0.1 9.3 2.3 5 3.3 6.8 7.6 6.8 16.4 0 6.3 -0.2 7.1 -2.6 9 -3 2.3 -8.6 2.8 -10.1 0.9z"/>
  <path d="M216.6 547.7 c-0.9 -2.3 -1.6 -6.1 -1.6 -8.2 0 -4.1 0.6 -4.8 6.7 -8.1 1.2 -0.7 9.1 -6.8 17.5 -13.6 8.4 -6.8 19.5 -15.4 24.7 -19.1 11.6 -8.3 14.8 -8.7 21.1 -3.1 3.3 3 4 4.3 3.9 7.3 0 3.4 -0.6 4 -10.2 11 -13.9 10.2 -38.3 27.2 -43.2 30.1 -2.2 1.3 -5.6 3.6 -7.6 5.2 -2.2 1.6 -4.9 2.8 -6.7 2.8 -2.5 0 -3.1 -0.6 -4.6 -4.3z"/>
  <path d="M200 525.9 c-1.9 -1.7 -6.1 -4.6 -9.2 -6.6 -5.1 -3.1 -5.8 -4 -5.8 -6.7 0 -2.7 1.1 -4 8.1 -9.6 4.4 -3.6 12.6 -9.7 18.2 -13.7 13.5 -9.6 13 -9.2 22.5 -15.1 10.7 -6.7 13.5 -6.8 21.1 -0.9 3.1 2.4 6.6 4.9 7.9 5.6 3.3 1.8 3.1 7.5 -0.6 10.5 -4.6 3.9 -18.2 13.8 -28.7 20.9 -5.5 3.7 -13.1 9.4 -17 12.7 -8.3 7.1 -11.1 7.6 -16.5 2.9z"/>
  <path d="M244 419.8 c-6.3 -4.4 -14.5 -10.1 -18.2 -12.6 -6.1 -4 -6.8 -4.8 -6.8 -7.7 0 -3.3 0 -3.3 6 -4 3.3 -0.4 6.7 -1.3 7.5 -2.1 2.6 -2.7 7.4 -1.6 13.5 2.9 3.2 2.3 8.7 6 12.2 8.2 3.4 2.2 8.5 5.5 11.1 7.5 4.5 3.3 4.7 3.8 4.5 7.5 l-0.3 4 -4.5 0.1 c-3.6 0 -4.7 0.4 -5.5 2.2 -0.7 1.7 -1.8 2.2 -4.5 2.2 -2.8 0 -5.9 -1.7 -15 -8.2z"/>
  <path d="M422 405 c0 -3.1 0.5 -4.3 2.5 -5.6 3.3 -2.1 3.2 -3.1 -0.5 -3.9 -2.6 -0.6 -3 -1.1 -3 -3.9 0 -4.1 2.1 -7 6.2 -8.7 1.8 -0.7 5.3 -3 7.7 -5.1 4.8 -4.1 7.9 -5.4 11.4 -4.5 1.2 0.4 3.6 0.9 5.2 1.3 4.1 0.9 7.4 5.1 7.4 9.4 0.1 3.4 -0.6 3.9 -14.6 14.3 -12.6 9.2 -15.2 10.7 -18.5 10.7 -3.8 0 -3.8 0 -3.8 -4z"/>
  <path d="M478.1 385.9 c-14.8 -8.5 -25 -26.9 -25.1 -45.2 0 -10 0.6 -10.7 9.1 -10.7 8.1 0 12.7 1.9 19.4 8.1 9.6 8.9 15.5 23.5 15.5 38.5 0 11.4 -0.6 12.4 -7.8 12.4 -4.5 0 -6.8 -0.7 -11.1 -3.1z"/>
  <path d="M158.3 384.3 c-1.2 -3 -1.4 -6.1 -1 -14.1 0.4 -9.2 0.9 -11.1 3.8 -17 6.4 -12.8 17.9 -22 29.6 -23.8 9.1 -1.3 11.3 1.2 11.3 13.2 0 6 -0.6 9.1 -3.2 15.7 -6.9 17.9 -20.3 29.7 -33.9 29.7 -4.8 0 -5.1 -0.1 -6.6 -3.7z"/>
 </g>
 <g fill="#9e3e29">
  <path d="M416.8 543.3 c-6.2 -4.2 -12.9 -8.8 -14.8 -10.3 -1.9 -1.5 -10.4 -7.3 -18.9 -13.1 l-15.3 -10.4 0.5 -6.5 c0.4 -5.1 0.3 -6 -0.5 -4.2 -0.9 1.9 -1.9 2.2 -6.2 2.2 -5.7 0 -7.8 -1.3 -39.6 -25 -8.5 -6.4 -18.2 -13.3 -21.5 -15.4 -3.3 -2.2 -9.3 -6.6 -13.2 -9.9 -7 -5.7 -7.3 -6.1 -7.3 -10.3 0 -2.8 0.4 -4.4 1.3 -4.4 0.6 0 2.3 -0.9 3.7 -2 1.8 -1.4 4.1 -2 8 -2 5.4 0 5.8 0.3 17 8.6 6.3 4.7 17.8 12.9 25.5 18.1 7.7 5.3 16 11.3 18.5 13.3 2.5 2 7.3 5.6 10.7 7.9 5.5 3.7 6.4 4.6 6.9 8.1 0.6 3.9 0.7 4 5 4 3.8 0 5.5 0.9 14.6 7.6 5.7 4.2 12.6 9.4 15.3 11.6 2.8 2.1 10.4 7.5 16.9 11.9 17.7 12 16.5 10.9 16.6 15.4 0 2.3 -1 5.8 -2.2 8.3 -2.1 3.8 -2.7 4.2 -6 4.2 -3 0 -6 -1.5 -15 -7.7z"/>
 </g>
 <g fill="#913925">
  <path d="M223.6 572 c-0.4 -4.5 -0.3 -8.7 0.1 -9.5 0.5 -0.7 2.4 -2.4 4.3 -3.7 1.9 -1.3 6.4 -4.4 9.9 -6.9 21.5 -14.9 26.5 -17.9 29.8 -17.9 3 0 3.3 0.3 3.3 3 0 2.6 0.5 3.1 3 3.6 2.6 0.6 3 1.1 3 3.8 0 2.7 -0.9 3.7 -6.3 7.3 -3.4 2.4 -10.1 7.1 -14.8 10.5 -20.9 15.2 -25 17.8 -28.3 17.8 l-3.3 0 -0.7 -8z"/>
  <path d="M361.8 505.2 c-4.7 -3 -5.8 -4.2 -5.8 -6.5 0 -2.4 0.2 -2.6 1.9 -1.7 3.1 1.6 5.9 1.2 6.6 -0.9 0.3 -1.1 1.5 -2.3 2.6 -2.6 1.7 -0.6 1.9 -1.2 1.4 -3.3 -0.4 -1.5 -1.4 -3.5 -2.2 -4.4 -1.5 -1.7 -1.4 -1.8 1.6 -1.8 4.1 0 12.1 6.4 12.1 9.6 0 1.7 -0.5 2 -2.4 1.7 -2.9 -0.6 -5 2.3 -6 7.9 -0.5 2.9 -0.3 3.9 1.1 4.7 1.5 0.9 1.2 1 -1.7 1.1 -2.4 0 -5.3 -1.2 -9.2 -3.8z"/>
  <path d="M320.4 502.6 c-0.3 -0.8 -2 -1.8 -3.7 -2.1 -6.6 -1.3 -12.4 -4 -19.8 -9.1 l-7.6 -5.3 -0.7 -6.2 c-0.3 -3.4 -0.6 -7.9 -0.6 -10 0 -3.8 0.1 -3.9 3.8 -3.9 3.2 0 5.4 1.1 12.3 6.3 4.6 3.5 10.6 7.5 13.3 9 2.6 1.5 8.6 5.5 13.2 8.9 7.9 5.9 8.4 6.5 8.4 10.1 l0 3.7 -9 0 c-7 0 -9.2 -0.3 -9.6 -1.4z"/>
  <path d="M238 448.7 c-13.4 -9.1 -13.5 -9.2 -13.8 -13.3 -0.3 -3.7 0 -4.2 2.2 -4.8 2.2 -0.5 2.6 -1.2 2.6 -4.1 0 -3.3 0.2 -3.5 3.4 -3.5 2.7 0 5.3 1.4 11.3 5.9 4.3 3.2 11 7.8 14.8 10.1 9.6 5.8 10.5 6.7 10.5 10.9 0 5 -4.8 8.1 -12.2 8 -5 0 -6.1 -0.5 -18.8 -9.2z"/>
  <path d="M267.8 436.7 c-9.1 -6.4 -11.7 -8.7 -11.7 -10.5 -0.1 -1.9 0.3 -2.2 1.9 -1.7 1.4 0.4 2 0.2 2 -0.8 0 -0.8 0.9 -2.2 2 -3.2 1.6 -1.4 2.4 -1.5 4.9 -0.7 3.7 1.3 5.4 -0.4 2.6 -2.5 -3.4 -2.4 5.8 -1.6 10.2 0.9 11.6 6.8 18.3 12.4 18.3 15.4 0 2 -0.4 2.2 -3.4 1.7 -2.6 -0.4 -4.2 0 -6.4 1.6 -1.7 1.1 -3.5 2.1 -4.1 2.1 -1.6 0 -1.3 2.1 0.6 4.2 1.5 1.7 1.4 1.8 -1.8 1.7 -2.6 0 -6.2 -2 -15.1 -8.2z"/>
  <path d="M380 434.5 c-1.3 -1.4 -3 -2.5 -3.7 -2.5 -1.1 0 -1.3 -1.3 -1.1 -5.2 l0.3 -5.2 12 -9.3 c23.6 -18.2 39.3 -27.4 37.2 -21.9 -0.6 1.6 3 3 3.9 1.5 1.9 -3.1 4.1 2.9 2.3 6.4 -0.6 1.2 -2.3 3.2 -3.8 4.4 -3.4 2.8 -1.9 4.3 1.7 1.7 4.5 -3.3 5.2 -3.6 4.6 -2 -0.3 0.8 -1.7 2.2 -3 3.1 -1.3 0.8 -2.4 2.1 -2.4 2.8 -0.1 1.2 -6.7 6.2 -20.9 15.7 -3.6 2.5 -9.2 6.4 -12.3 8.8 -6.9 5.1 -11.2 5.6 -14.8 1.7z"/>
  <path d="M184.7 411.5 c-7.9 -6 -8.7 -6.9 -8.7 -9.9 0 -3 0.6 -3.7 4.4 -6 7.4 -4.3 11.3 -3.3 24.4 6.4 5.2 3.8 6.1 5 6.1 7.7 0.1 3.2 0 3.2 -5.1 3.5 -4.6 0.3 -5.3 0.6 -5.6 2.6 -0.3 1.8 -1 2.2 -3.6 2.2 -2.5 0 -5.4 -1.6 -11.9 -6.5z"/>
 </g>
 <g fill="#a02625">
  <path d="M288.6 333.9 c-11.2 -2.7 -19.6 -6.6 -19.6 -9.2 0 -3.3 2.3 -10.1 3.7 -11 0.7 -0.4 1.3 -2.1 1.3 -3.7 0 -4.6 2.5 -3.8 13.5 4.3 11.1 8.2 17.5 14.7 17.5 17.7 0 1.2 1 2.4 2.3 3 4.3 1.7 -10.5 0.9 -18.7 -1.1z"/>
  <path d="M341 278.2 c0 -0.6 1.4 -3.3 3 -6 3.2 -5 8 -17.9 8 -21.3 0 -3.5 3.8 -2 9.8 3.9 6.9 6.7 9.4 8.8 11.2 9.4 2.2 0.7 -8.8 9.6 -14.7 11.8 -6.5 2.4 -17.3 3.8 -17.3 2.2z"/>
  <path d="M301.5 240.3 c-1.3 -6.9 -1 -13.7 0.7 -17 0.9 -1.8 1.9 -5 2.3 -7.3 0.4 -2.2 1.1 -4.2 1.6 -4.6 1.2 -0.7 1.2 -5.1 -0.1 -5.9 -1.3 -0.8 -1.3 -7.2 -0.1 -8 0.6 -0.3 2.1 -3.1 3.6 -6.3 3.9 -8.6 4 -8.7 7.6 -9 5.9 -0.4 6.4 0.6 5.1 9.2 -1.2 7.6 -5.4 19.8 -11.7 33.6 -1.8 4.1 -3.7 9.3 -4 11.5 -1 6.2 -1.5 7.5 -3 7.5 -0.7 0 -1.6 -1.7 -2 -3.7z"/>
 </g>
 <g fill="#893021">
  <path d="M409.9 570.7 c-19.4 -14.6 -18.9 -14 -18.9 -17.6 0 -2.4 0.4 -3.1 2 -3.1 1.7 0 2 -0.7 2 -4 0 -3.9 0.1 -4 3.6 -4 4.2 0 16.4 7.6 25.1 15.7 l5.2 4.8 0.7 9.3 0.7 9.2 -3.4 -0.1 c-2.7 0 -6.3 -2.2 -17 -10.2z"/>
  <path d="M280.6 479.7 c-25.6 -19.1 -27.1 -20.4 -27.4 -22.9 -0.3 -2.2 0 -2.4 3 -2.2 2.7 0.2 5.5 -1 9.7 -4.3 0.2 -0.1 -0.4 -1.2 -1.4 -2.3 -1.8 -2 -1.7 -2 1.3 -2 2 0 4.8 1.2 7.5 3.3 2.4 1.7 8.3 6 13.1 9.5 6.9 5 8.6 6.8 8.6 8.8 0 2 -0.4 2.4 -1.9 1.9 -1.7 -0.5 -1.9 -0.2 -1.4 3.7 0.2 2.4 0.6 5.5 0.7 6.9 0.2 1.4 0.6 3.1 1 3.7 0.5 0.8 -0.3 1.2 -2.6 1.1 -2.3 -0.1 -5.3 -1.6 -10.2 -5.2z"/>
  <path d="M215 432.3 c-4.1 -3 -9.7 -6.8 -12.5 -8.4 -7.2 -4.2 -8.3 -5.2 -9.1 -8.3 -0.6 -2.7 -0.6 -2.8 1.6 -1.6 2 1.1 2.1 1 1.5 -0.9 -0.5 -1.7 0 -2.2 2.7 -2.9 1.8 -0.5 4.7 -0.7 6.3 -0.5 l3 0.4 -3 -2.1 -3 -2.2 5 0.7 c3.2 0.4 6.5 1.7 9 3.5 2.2 1.6 7.2 5.1 11.2 7.7 5.5 3.7 7.2 5.4 7.3 7.2 0 1.7 -0.4 2.2 -1.6 1.7 -1.3 -0.5 -1.5 -0.1 -1.2 2.5 0.4 2.6 0.1 3.3 -2.1 4.2 -3.6 1.5 -3.5 1.5 -2.1 3.2 1.1 1.3 0.8 1.5 -2.1 1.5 -2.5 -0.1 -5.4 -1.5 -10.9 -5.7z"/>
  <path d="M443.5 424 c-0.3 -0.5 -2.8 -1 -5.6 -1 l-4.9 0 0 -3.9 c0 -4.4 0.4 -4.8 20.7 -19.4 10.3 -7.4 11.6 -7.7 20.5 -5 5.7 1.8 5.8 1.9 5.8 5.5 0 3.3 -0.6 4.1 -6.2 8.6 -13 10.3 -22.6 16.2 -26.2 16.2 -1.9 0 -3.8 -0.4 -4.1 -1z"/>
  <path d="M207.6 395.4 l-10.7 -7.6 0.3 -4.2 c0.3 -3.6 0.7 -4.3 3.9 -5.9 2 -1 6.5 -2 10 -2.3 6.2 -0.5 6.5 -0.4 11.5 3.3 13.2 10 16.4 12.8 16.4 15 0 1.6 -0.4 2.1 -1.5 1.7 -1 -0.4 -1.5 0 -1.5 1.1 0 0.9 -0.4 1.4 -0.9 1 -0.5 -0.3 -1.3 0 -1.6 0.6 -0.4 0.6 -1.8 0.8 -3 0.5 -1.3 -0.3 -2.6 -0.2 -2.9 0.3 -0.3 0.4 -1.8 0.6 -3.3 0.4 l-2.8 -0.5 2.5 2.1 2.5 2.1 -4.1 0 c-3.6 0 -5.6 -1.1 -14.8 -7.6z"/>
 </g>
 <g fill="#9b1b1c">
  <path d="M350.5 336.2 c1.5 -0.7 1.9 -1.7 1.7 -4.4 -0.4 -4.6 2.6 -8.1 13.7 -15.9 4.7 -3.4 11 -8.4 13.9 -11.2 2.8 -2.8 5.2 -4.6 5.2 -3.9 0 0.7 0.7 1.2 1.5 1.2 0.9 0 2.7 1.1 4.1 2.5 1.4 1.4 3.6 2.5 4.9 2.5 1.3 0 2.8 0.6 3.2 1.3 0.4 0.6 2.4 1.9 4.3 2.8 l3.4 1.6 -4.9 3.6 c-5.8 4.3 -24.6 13.7 -32.1 16.1 -2.9 0.9 -7.4 2.1 -10 2.6 -2.7 0.5 -6.2 1.2 -7.9 1.5 -2.2 0.4 -2.5 0.3 -1 -0.3z"/>
  <path d="M300.9 272.7 c-1.4 -0.7 -4 -2.9 -5.8 -5 -1.8 -2 -4.3 -4 -5.6 -4.3 -2.8 -0.7 -4.5 -4.3 -4.5 -9.3 0 -2.4 -0.9 -4.9 -2.5 -7.1 -1.5 -2.1 -2.5 -4.7 -2.5 -6.8 0 -3.5 3.6 -11.2 5.3 -11.2 0.8 0 8.7 -7.7 8.7 -8.6 0 -0.2 -1.5 -2.7 -3.2 -5.4 -3 -4.5 -3.7 -5 -7 -5 -2.1 0 -3.8 -0.3 -3.8 -0.7 0 -0.5 -1.8 -2.7 -4 -5.1 -2.2 -2.4 -4 -4.9 -4 -5.7 0 -0.8 -0.4 -1.7 -1 -2 -0.5 -0.3 -1 -2.4 -1 -4.5 l0 -3.9 3 1.1 c2.4 0.8 3.5 0.7 5.5 -0.6 4.4 -2.9 4.5 -6.9 0.5 -29.8 -1.4 -7.5 -2.1 -14 -1.8 -14.3 0.4 -0.4 4.4 -0.2 9 0.5 4.6 0.6 10.6 1.4 13.3 1.7 2.8 0.3 5.6 1 6.3 1.5 1.8 1.5 1.5 7.9 -0.7 12.4 -3.5 7.2 -3.5 8.8 -0.4 12 8.4 8.9 11.3 13 10.5 15.4 -1.1 3.3 -5.4 12 -6.2 12.5 -0.5 0.3 -0.2 1.8 0.6 3.5 1.5 2.9 1.1 9.5 -0.6 10.5 -0.5 0.3 -1.1 2.4 -1.5 4.8 -0.4 2.3 -1.1 4.7 -1.5 5.2 -1.7 2.4 -2.9 7.8 -2.1 9.4 0.5 0.9 1.2 6.8 1.5 13 0.5 8.3 1.3 13.3 3.1 18.4 1.3 3.9 2.2 7.4 1.9 7.9 -0.7 1.2 -6.4 0.9 -9.5 -0.5z"/>
  <path d="M368 265.8 c0 -0.6 -0.3 -0.9 -0.6 -0.6 -0.3 0.3 -3.9 -2.7 -8 -6.7 l-7.4 -7.4 1 -4.3 c3.2 -14.1 -1.6 -44.7 -10.2 -64.2 -2.7 -6.2 -6.9 -13 -13 -21.1 -11 -14.6 -11.2 -14.8 -10.4 -11.3 0.3 1.4 0.9 3.4 1.3 4.5 0.6 1.6 0.5 1.6 -1 0.4 -1 -0.8 -1.7 -2.8 -1.7 -4.7 0 -2.7 0.5 -3.5 2.5 -4 1.3 -0.3 2.9 -1.2 3.6 -2 0.6 -0.8 2.8 -1.4 4.8 -1.4 3.8 0 11.4 3 12.5 4.9 0.4 0.6 1.6 1.1 2.7 1.1 1.9 0 2 0.5 1.4 7.7 -0.5 7.3 -0.4 8 1.8 10.4 2.6 2.9 6.5 3 8.8 0.3 0.6 -0.8 2.7 -1.4 4.5 -1.4 3.4 0 3.4 0.1 3.4 4.4 0 2.5 -0.4 4.8 -1 5.1 -2 1.2 -0.9 3.2 3.9 6.8 3.5 2.7 5.8 3.7 8.4 3.7 2.9 0 3.8 0.5 4.9 2.8 3.4 6.7 13 -0.2 16.7 -12.1 2.4 -8 5.1 -26.3 5.1 -35.2 0 -3.6 0.3 -6.5 0.7 -6.5 1.3 0 10 6 12.7 8.9 2.5 2.6 2.8 3.5 2.3 7.3 -0.3 2.3 -1.1 4.4 -1.6 4.6 -0.7 0.2 -1.1 3.7 -1.2 8.5 -0.1 17.6 -1.1 22.9 -5.3 29.2 -2.7 4.1 -3.5 6 -2.7 6.8 0.6 0.6 1.1 2.8 1.1 4.9 0 3.1 -0.4 3.8 -1.9 3.8 -1.1 0 -2.3 0.5 -2.6 1 -0.8 1.3 -9.1 1.3 -11.5 0 -1.3 -0.7 -2.1 -0.7 -2.5 0 -0.3 0.5 -2.8 1 -5.5 1 -4.4 0 -5.1 -0.3 -6.7 -3 -1.2 -2.2 -2.5 -3 -4.5 -3 -1.5 0 -3 -0.4 -3.3 -1 -0.3 -0.5 -1.3 -1 -2.1 -1 -1.9 0 -1.9 5 0.1 7.6 2.2 2.9 1.8 7.1 -1 10.8 -1.4 1.8 -2.5 4 -2.5 4.9 0 0.9 1.1 2.7 2.5 4.1 1.8 1.9 2.5 3.6 2.5 6.6 0 3.9 0.1 4 3.8 4.1 4.9 0.1 7.2 0.9 10.6 3.6 3.9 3.1 3.1 5.6 -5 14.8 -6 6.9 -10.4 9.6 -10.4 6.3z"/>
 </g>
 <g fill="#931e1e">
  <path d="M412 303.6 c0 -1.9 -0.4 -3.8 -1 -4.1 -0.5 -0.3 -1 -1.7 -1 -3 0 -1.3 -0.5 -2.7 -1.1 -3.1 -1.4 -0.8 -0.6 -10.7 1.1 -14.5 1.4 -3.1 6.8 -5.9 11.4 -5.9 2.1 0 4 -0.8 5.2 -2.1 2.5 -2.8 9.6 -5.9 13.4 -5.9 3.9 0 3.7 1 -2.7 11.8 -6.2 10.5 -22.2 30.2 -24.5 30.2 -0.4 0 -0.8 -1.5 -0.8 -3.4z"/>
  <path d="M305 279.3 c-1.4 -0.2 -6.2 -2.2 -10.6 -4.3 -6.4 -3.1 -9.5 -5.4 -14.2 -10.5 -10.3 -11.3 -17.2 -27.1 -17.2 -39.9 -0.1 -6.1 -0.2 -6.9 -1.4 -5.3 -1.9 2.5 -2.6 2.1 -2.6 -1.5 0 -5.7 0.7 -6 10.7 -5.2 9 0.7 9.1 0.7 9.7 3.5 0.3 1.5 2.8 5.1 5.6 7.9 4.9 4.9 6.3 8 3.7 8 -0.7 0 -2.4 1.8 -3.6 4.1 l-2.3 4 2.6 3.8 c1.6 2.3 2.6 5.1 2.6 7.4 0 4.9 1.8 8.4 4.5 9.1 1.3 0.3 3.8 2.3 5.6 4.3 3.2 3.8 8.2 6.7 9.3 5.6 0.3 -0.4 0.6 -1.6 0.7 -2.7 0 -1.3 0.9 -0.2 2.4 3.1 4.1 9 4.1 9.3 0.3 9.2 -1.8 -0.1 -4.4 -0.4 -5.8 -0.6z"/>
  <path d="M405.7 247.3 c-0.6 -8.5 -2.7 -14.4 -8 -22.3 l-3.4 -5 -0.6 6.8 c-0.7 6.9 -1.6 9.9 -6.4 20 -2.3 4.9 -4.2 6.7 -4.4 4 0 -0.7 -1.4 -2.4 -3 -3.7 -2.4 -1.8 -4.4 -2.4 -8.5 -2.5 l-5.4 -0.1 0 -4 c0 -3.5 0.6 -4.7 4.8 -8.6 5.8 -5.6 11.4 -8.9 15.1 -8.9 1.8 0 3.5 -0.9 4.7 -2.5 1 -1.4 2.6 -2.5 3.5 -2.5 0.8 0 2.8 -1.4 4.4 -3 4.4 -4.6 8 -6 15.3 -6 l6.4 0 -0.6 4.8 c-0.3 2.6 -0.9 11.6 -1.2 20 -0.6 14.9 -0.7 15.4 -3 16.4 -1.3 0.6 -2.4 1.5 -2.4 2 0 0.4 -0.7 0.8 -1.5 0.8 -0.8 0 -1.5 0.5 -1.5 1 0 0.6 -0.8 1 -1.9 1 -1.6 0 -1.9 -1.1 -2.4 -7.7z"/>
  <path d="M313 188.7 c-0.8 -0.8 -3.1 -3.5 -5 -5.8 -8.1 -10 -9.3 -10.9 -13.6 -10.2 -2.1 0.3 -4.7 1.2 -5.6 2 -0.9 0.8 -2.2 1.2 -2.9 0.7 -0.9 -0.5 -1 0.3 -0.6 3.3 0.5 2.7 0.2 4.6 -0.7 5.9 -0.8 1 -1.6 1.7 -1.9 1.4 -0.3 -0.3 -0.7 -3.8 -0.9 -7.7 -0.4 -7.2 0.4 -8.8 2.6 -5.7 1 1.4 1.4 1.3 3.6 -0.4 1.4 -1.1 4.2 -2.5 6.4 -3.3 2.3 -0.8 4.2 -2.3 4.7 -3.6 1.1 -2.8 3 -2.9 5.4 -0.3 1 1.1 3 2 4.5 2 1.5 0 3.5 -0.9 4.5 -2 1.2 -1.3 3.1 -2 5.7 -2 l3.8 0 0 12.5 c0 6.9 -0.2 12.5 -0.5 12.5 -0.3 0 -1.6 -0.7 -2.9 -1.5 -2.4 -1.6 -3.7 -0.9 -4.8 2.4 -0.3 1.1 -0.6 1.1 -1.8 -0.2z"/>
  <path d="M249.4 174.5 c-1 -0.8 -3.1 -1.5 -4.6 -1.5 -2.6 0 -2.8 -0.3 -2.8 -4 0 -2.8 0.4 -4 1.5 -4 2.3 0 3 -6.2 1.1 -9.9 -2.1 -4 -5 -4 -9.6 -0.1 -2.3 2 -4.5 3 -6.7 3 l-3.2 0 2.1 -3.7 c1.2 -2.1 4.7 -6.3 7.8 -9.4 5.7 -5.8 16.6 -13.6 17.6 -12.6 0.3 0.3 0 5.1 -0.6 10.7 -1.6 13.6 -0.9 18.4 4.5 31.3 0.6 1.4 0.2 1.7 -2.2 1.7 -1.6 0 -3.8 -0.7 -4.9 -1.5z"/>
  <path d="M276.7 140.5 c-1.3 -9.2 2 -38.5 5.2 -46.9 1.2 -3 1.2 -3 11.6 -0.9 3.7 0.8 4 1.1 4.3 4.6 0.2 2.3 -0.3 4.8 -1.2 6.2 -0.9 1.4 -1.6 3.4 -1.6 4.5 0 1.1 -0.7 2.3 -1.5 2.7 -1.3 0.4 -1.5 1.7 -0.9 7.4 0.8 8.2 0 11.9 -2.4 11.9 -2.7 0 -6.2 3.7 -6.2 6.6 0 3.4 -3 8.4 -5.1 8.4 -1.2 0 -1.8 -1.2 -2.2 -4.5z"/>
  <path d="M229 109.9 c0 -0.8 0.9 -4.3 2 -7.7 1.2 -3.8 2 -9.2 2 -13.3 0 -6.2 0.2 -6.9 2 -6.9 1.1 0 2 0.6 2 1.4 0 1.5 4.9 2.6 12.5 2.6 7.1 0 8.1 0.9 6.7 5.7 -2.2 7.2 -6.6 12.9 -12.4 15.7 -6.5 3.2 -14.8 4.6 -14.8 2.5z"/>
 </g>
 <g fill="#84281b">
  <path d="M383 551 c-4.1 -2.7 -14.2 -9.6 -22.5 -15.4 -8.2 -5.8 -17.5 -12 -20.5 -13.9 -3.1 -1.8 -8.6 -5.5 -12.3 -8.2 -6.3 -4.7 -6.7 -5.2 -6.7 -9 0 -4.5 1.3 -7.6 2.2 -5.3 0.4 0.9 2.6 1.4 6.7 1.5 5.7 0.2 8.1 -1 4.6 -2.3 -2.5 -1 -1.7 -2.4 1.5 -2.4 3.3 0 5.3 1.2 20.5 13 9.6 7.5 22.8 17 40.2 28.9 2.9 2 5.2 4.2 5.3 5 0 0.8 0.7 2.3 1.7 3.3 1.9 2.2 0.5 2.4 -2.3 0.3 -3.8 -2.9 -5 -0.6 -1.2 2.4 2.8 2.3 1.6 4.1 -3 4.1 -3.4 0 -3.5 0.1 -1.6 1.5 1.8 1.3 1.7 1.4 -1.6 1.5 -2.6 0 -5.5 -1.3 -11 -5z"/>
  <path d="M272.3 545.6 c1.6 -1.2 1.5 -1.4 -1.6 -2 -3.1 -0.6 -3.3 -0.9 -2.9 -3.8 0.4 -2.6 0.2 -3 -1.2 -2.5 -1.2 0.5 -1.6 0.1 -1.6 -1.6 0 -1.7 2.2 -3.8 8.3 -8.3 16.2 -12 22.3 -15.4 27.2 -15.4 6 0 8.5 2.5 8.5 8.3 l0 4.3 -15.1 11.2 c-13.6 10.1 -15.4 11.2 -19.2 11.2 -3.7 -0.1 -4 -0.2 -2.4 -1.4z"/>
  <path d="M436.7 524 c-3.1 -2.1 -10.1 -7.2 -15.4 -11.3 -5.4 -4.1 -12.7 -9.3 -16.3 -11.7 -3.6 -2.3 -7.8 -5.5 -9.5 -7 -3.7 -3.3 -30.4 -23.4 -47.5 -35.6 -12.7 -9.1 -17.8 -12.9 -44.5 -32.6 -8.2 -6 -22.2 -15.8 -31 -21.6 -8.7 -5.8 -19.5 -13.3 -24 -16.7 -4.4 -3.3 -9.1 -6.8 -10.5 -7.8 -1.4 -0.9 -5.4 -3.7 -9 -6.1 -20.8 -14.3 -20.6 -14 -17.1 -24.4 1.2 -3.4 2.1 -7.5 2.1 -9.2 0 -2.7 0.3 -3 3.3 -3 3.5 0 13.3 6.1 23.2 14.4 2.8 2.3 15.8 11.4 29 20.2 13.2 8.7 27.8 18.8 32.5 22.3 4.7 3.5 15 10.7 23 16 8 5.3 22.6 15.1 32.5 21.9 9.9 6.7 23.6 16.1 30.5 20.8 16.6 11.3 19 13.1 20 16 0.5 1.3 1.6 2.4 2.3 2.4 0.7 0 2.3 1.1 3.5 2.4 1.1 1.4 4.8 3.8 8.1 5.5 6.7 3.3 11.1 6.4 18.6 12.9 2.7 2.4 7.2 5.5 9.9 6.9 2.7 1.4 7.4 4.3 10.3 6.5 4.5 3.4 5.3 4.5 5.3 7.3 0 3 -0.8 3.9 -8.2 9.4 -10.2 7.6 -12.9 7.9 -21.1 2.1z"/>
  <path d="M402.6 448.2 c-3.8 -5.6 -3.5 -9.4 1.2 -12.7 2 -1.4 9.1 -6.4 15.7 -11 9.4 -6.6 12.8 -8.4 15.5 -8.5 2.6 0 3.1 0.3 2.2 1.2 -0.7 0.7 -1.2 1.6 -1.2 2 0 1.3 5.5 0.9 6.9 -0.4 1 -1.1 1.6 -0.8 3 1.1 1 1.3 2.3 2.1 3 1.7 0.7 -0.5 1.1 0.1 1.1 1.6 0 1.7 -2.2 3.9 -9.2 8.8 -5.1 3.6 -13 9.5 -17.6 13.3 -7.8 6.1 -8.8 6.7 -13.2 6.7 -4.3 0 -4.9 -0.3 -7.4 -3.8z"/>
  <path d="M351.3 415.2 c-5.4 -5 -6.3 -6.3 -6.3 -9.2 0 -3.2 0.8 -4.1 10.5 -11.9 5.8 -4.6 15 -11.6 20.4 -15.6 5.4 -4 13.4 -10.1 17.6 -13.4 4.2 -3.4 8.4 -6.1 9.5 -6.1 1 0 2.4 -1 3.2 -2.3 0.9 -1.2 2.8 -2.9 4.4 -3.7 1.6 -0.8 4.7 -2.8 6.9 -4.5 9.3 -7.3 15 -10.5 18.6 -10.5 l3.6 0 1.6 7.8 c0.9 4.2 1.7 9.8 1.7 12.4 0 4.9 -1.2 6.4 -8 9.6 -1.4 0.6 -3.4 1.8 -4.5 2.4 -11.2 7.1 -16 10.5 -21.9 15.7 -3.7 3.3 -10.9 8.8 -16 12.2 -11.2 7.6 -26.3 19.6 -27 21.5 -0.3 0.9 -2 1.4 -4.3 1.4 -3.2 -0.1 -4.8 -1 -10 -5.8z"/>
 </g>
 <g fill="#931817">
  <path d="M399 313.7 c-1.4 -0.6 -2.9 -1.7 -3.3 -2.4 -0.4 -0.7 -1.9 -1.3 -3.2 -1.3 -1.3 0 -3.5 -1.1 -4.9 -2.5 -1.4 -1.4 -3.2 -2.5 -4.1 -2.5 -2.4 0 -1.8 -1.8 2.4 -6.8 4.8 -5.8 13.2 -19.3 15.3 -24.7 1.3 -3.4 3.6 -12.5 5.4 -21.2 0.2 -1.3 1.1 -2.3 1.9 -2.3 0.8 0 1.5 -0.4 1.5 -0.8 0 -0.5 1.1 -1.4 2.3 -1.9 2.3 -1.1 2.4 -1.6 2.6 -14 0.4 -16.5 0.5 -18 1.4 -18.9 1.3 -1.3 0.7 -2.7 -0.7 -1.5 -1 0.8 -1.6 0.9 -2.1 0.1 -0.9 -1.5 -4.5 -1.2 -5.1 0.5 -0.4 0.8 -1.1 1.2 -1.6 0.9 -0.5 -0.4 -2.7 1 -4.8 3.1 -2.3 2.2 -4.5 3.5 -5.6 3.3 -1.3 -0.2 -2.4 0.6 -3.4 2.7 -1.2 2.3 -2.2 3 -4.5 3 -1.6 0 -4.8 1 -7 2.2 -5.1 2.8 -12.2 10.1 -12.7 13.1 -0.2 1.3 -1.4 2.9 -2.8 3.7 -9.4 4.9 -10.8 4.5 -5.1 -1.4 5.3 -5.5 5.8 -7.5 2.8 -10.5 -1.4 -1.4 -2.8 -4.3 -3.2 -6.5 -0.6 -3.6 -0.3 -4.6 2.4 -8 1.8 -2.3 2.7 -4.2 2.2 -4.6 -1.7 -1 -3.2 -8.3 -2.5 -12.1 0.7 -3.6 0.7 -3.6 4.8 -3 2.2 0.4 4.5 1.1 5 1.7 0.6 0.5 2.2 0.9 3.6 0.9 1.8 0 3.1 0.9 4.3 3 2 3.3 4.7 3.9 6.7 1.5 1.6 -2 4.1 -1.9 7.9 0.3 2.5 1.4 3.4 1.5 5.1 0.5 1.1 -0.7 2.7 -1.3 3.5 -1.3 1.7 0 2 -1.6 0.5 -2.5 -2.3 -1.4 -1 -7.5 3.1 -13.7 2.5 -3.9 3.8 -7 3.5 -8.3 -0.2 -1.1 -0.1 -3.9 0.3 -6.1 0.4 -2.3 0.4 -4.9 -0.1 -5.7 -0.5 -0.9 -0.4 -1.8 0.2 -2.2 0.5 -0.3 1 -3.7 1 -7.6 0 -3.8 0.4 -6.9 0.9 -6.9 1.6 0 2 -4 0.4 -4.8 -1.7 -1 -1.4 -4.7 0.5 -4.7 2.4 0 12.3 11 16.2 18.1 4.5 8.2 4.7 9.6 2.3 12.2 -1 1.1 -2.7 3.4 -3.8 5.2 -1.1 1.9 -2.5 4.3 -3.2 5.4 -1 1.7 -0.7 2.6 2.8 6.3 4.1 4.5 5.2 9.3 2.8 13.1 -0.9 1.4 -0.8 2.6 0.5 5.1 1 1.7 2.4 3.5 3.2 3.8 0.7 0.3 1.4 1.7 1.4 3.3 0 2.8 2.4 8.5 4.1 9.5 0.5 0.4 0.9 1.5 0.9 2.6 0 1 0.4 1.9 0.8 1.9 1.3 0 4.2 6.8 4.2 9.9 0 2.1 -1.5 4.5 -5.5 8.8 -3 3.2 -5.5 6.2 -5.5 6.8 0 0.5 1.8 2.8 4.1 5.1 3.3 3.4 3.9 4.5 3.3 6.8 -0.4 1.8 -1 2.4 -1.8 1.7 -1.4 -1.2 -8.4 1.9 -11 4.8 -1.2 1.3 -3.1 2.1 -5.3 2.1 -3.5 0 -9.2 2.4 -10.6 4.4 -0.4 0.6 -1.2 2.8 -1.7 4.8 -0.9 3 -0.8 4.2 0.5 6.2 0.9 1.3 1.5 2.8 1.3 3.2 -0.1 0.5 0.3 1.8 0.9 2.9 2.1 3.8 0.2 8 -5.8 12.9 -6.1 5 -6.2 5 -9.9 3.3z"/>
  <path d="M233.8 298.3 c-6.2 -4.8 -8.8 -8.7 -9.5 -14.3 -0.3 -2.9 -0.2 -5.5 0.3 -5.8 1.7 -1.2 3.4 -6.2 3.4 -9.9 0 -3 -0.8 -4.3 -4.2 -7.6 -5.7 -5.3 -9.7 -7.7 -12.9 -7.7 -2.5 0 -2.7 -0.3 -3.3 -6.2 -0.3 -3.5 -0.8 -8 -1.2 -10.1 -0.7 -4.4 0.8 -8.1 4.4 -11 4 -3.3 2.4 -14.7 -2.9 -20.3 l-2 -2.1 2.1 -8.4 c4.3 -17 14.3 -35.7 22.3 -41.6 2.7 -2.1 5.8 -4.4 6.8 -5.1 1 -0.8 2.3 -1 3.1 -0.6 0.7 0.5 1.8 0.9 2.3 1 0.6 0 1.6 0.2 2.2 0.2 4.6 0.6 6.2 19.2 1.7 19.2 -3 0 -1.2 2 1.9 2.1 1.7 0.1 2.5 0.3 1.7 0.6 -0.8 0.2 -2.5 2.7 -3.8 5.5 l-2.3 5 2.8 3.2 c1.5 1.7 3 3.3 3.3 3.6 0.3 0.3 1 1.4 1.6 2.5 0.6 1.1 1.4 1.9 1.8 1.8 0.3 -0.2 1.7 -0.3 3 -0.3 1.9 0 2.5 -0.7 3 -3.5 0.6 -3 1.1 -3.5 3.5 -3.5 1.6 0 3.4 0.6 4 1.4 0.7 0.8 2.3 1.7 3.6 2 1.5 0.4 2.5 1.4 2.5 2.5 0 1 0.7 2.4 1.5 3.1 0.9 0.7 1.4 1.8 1.2 2.3 -0.2 0.6 1.4 2.9 3.5 5.1 2.1 2.3 3.8 4.4 3.8 4.7 0 0.3 1.2 0.4 2.8 0.2 3.5 -0.5 4 0 9.1 7.5 4.2 6.2 4.2 6.4 2.5 8.9 -2.3 3.6 -8.1 9.3 -9.4 9.3 -1.9 0 -11.1 -10.1 -11.6 -12.9 -0.5 -2.4 -1 -2.8 -3.9 -2.6 -1.8 0.1 -3.7 0.5 -4.3 0.8 -0.5 0.4 -1.5 0 -2.2 -0.8 -1.7 -2 -2.7 -1.9 -3.5 0.5 -0.7 2.1 -5 2.9 -5.7 1.1 -0.1 -0.5 -2.2 0.4 -4.6 2 -2.6 1.8 -5.6 2.9 -7.6 2.9 -2.3 0 -4.4 1 -7.2 3.5 l-3.9 3.4 3.4 0.1 c1.9 0 5.9 0.8 8.8 1.7 5.3 1.7 5.4 1.8 4.9 4.8 -2.9 14.4 -1 29.9 5.1 42.5 2.1 4.4 3.6 8.6 3.3 9.4 -0.3 0.8 -2.7 4 -5.3 7 -4.8 5.6 -4.8 5.6 -10.6 5.6 -4.7 0 -6.4 -0.5 -9.3 -2.7z"/>
  <path d="M370 189.3 c-0.8 -0.3 -3.6 -2.2 -6.2 -4.1 -4.4 -3.3 -4.8 -4 -4.8 -7.8 0 -2.4 0.5 -4.6 1 -4.9 0.6 -0.3 1 -1.3 1 -2.2 0 -1.3 -0.5 -1.2 -2.5 0.7 -1.4 1.3 -2.8 2 -3.2 1.7 -0.3 -0.4 -1.4 0 -2.4 0.9 -1.4 1.3 -2.1 1.3 -4 0.4 -3.5 -1.9 -6.8 -6.3 -6.9 -9 0 -1.4 -0.4 -3.1 -0.9 -3.8 -0.5 -0.8 -0.3 -2.9 0.5 -5 1.1 -3.3 1 -3.7 -0.4 -4.1 -0.9 -0.1 -2.4 -0.9 -3.2 -1.7 -0.9 -0.7 -3.3 -2 -5.4 -2.9 -3.3 -1.4 -4 -1.4 -5.5 -0.2 -2.5 2.2 -5.2 2.8 -6.7 1.6 -1.8 -1.5 -1.8 -0.2 -0.1 4.7 0.8 2.2 1.7 5.8 2.1 8.2 0.6 3.8 0.4 4.2 -1.5 4.2 -1.2 0 -3.4 1.1 -4.9 2.4 -3.7 3 -11.1 2.8 -14.6 -0.5 -2.7 -2.5 -2.6 -3.6 0.5 -10.2 2.9 -5.9 2 -7.3 -5.2 -8.1 -2.9 -0.2 -7.9 -0.9 -11.2 -1.4 -3.3 -0.5 -6.1 -0.5 -6.3 0 -0.2 0.4 -0.8 0.8 -1.3 0.8 -1.7 0 -0.9 -6.5 1.1 -9.5 1.1 -1.6 2 -4.2 2 -5.7 0 -3 4.5 -7.9 6.5 -7.2 2.3 0.9 2.6 -2.2 1.1 -12.3 -0.7 -4.6 -0.6 -5.3 1.3 -6.3 1.2 -0.6 2.1 -2 2.1 -3.1 0 -1.1 0.7 -3.1 1.6 -4.4 1.7 -2.6 1.2 -4.5 -1.2 -4.5 -1.9 0 -1.8 -2.2 0.4 -5.1 1.4 -1.8 1.7 -3.7 1.4 -7.6 -0.2 -2.9 -0.7 -5.3 -1.2 -5.3 -0.4 0 -1 -1.6 -1.3 -3.6 -0.5 -3 0 -4.6 3.5 -10.2 5 -7.9 9.3 -13.8 14.2 -19.2 3.2 -3.6 4.1 -4 8.4 -4 5.4 0 7 0.9 10.7 5.9 2 2.8 2.5 4.7 2.5 9.2 0 5.5 -0.2 5.9 -4.7 10.3 -2.7 2.5 -5.6 4.6 -6.5 4.6 -2.2 0 -2.2 0.3 -0.2 4.1 1.5 2.9 1.6 3 3.9 1.5 4.5 -2.9 8.6 -2.1 13.4 2.8 4 4.1 4.3 4.7 4 9.2 -0.5 6.8 1.3 9.3 6 8.7 3.8 -0.5 3.9 -0.4 7.9 8 0.2 0.4 -0.7 0.7 -2 0.7 -1.6 0 -3.4 1.5 -6 4.9 l-3.6 4.9 2.5 2.4 c1.4 1.3 3.2 3.6 4 5.2 1.1 2.1 1.8 2.5 2.6 1.7 0.6 -0.6 2.4 -1.1 3.9 -1.1 1.5 0 2.8 -0.4 2.8 -1 0 -0.5 1.5 -1 3.3 -1 2.9 0 3.7 0.6 5.7 4.3 2 3.4 2.5 6 2.8 13.9 0.4 8.6 0.2 10 -1.6 12.3 -1.2 1.5 -1.8 3.3 -1.5 4.3 1.3 3.6 3.5 6 5.8 6.6 1.3 0.3 3.3 1.9 4.4 3.5 1.7 2.4 2 4.2 1.8 12.4 l-0.2 9.7 -2.7 0 c-1.4 0 -3.2 0.2 -4 0.4 -0.7 0.3 -2 0.2 -2.8 -0.1z"/>
 </g>
 <g fill="#8d171a">
  <path d="M265.2 324.7 c-9.6 -5.1 -17.7 -11.3 -28.2 -21.7 -15 -14.9 -25 -31.6 -30.2 -50.7 -1.7 -6.4 -2.1 -10.8 -2.2 -24.8 -0.1 -16.6 1.5 -30.5 3.5 -30.5 0.5 0 0.9 0.8 0.9 1.9 0 1 0.7 2.5 1.7 3.2 3.1 2.6 5.7 10.1 5.9 17.2 0.1 6.1 -0.1 6.9 -2.5 9 -4.5 4 -5.3 6.2 -3.7 10 0.7 1.9 1.2 5.2 1 7.4 -0.3 3.6 -0.2 4 1.5 3.6 2.2 -0.6 7.9 2.9 13.9 8.4 4.1 3.9 4.2 4.1 4.2 10.6 0 6.3 -1.3 11.3 -3.5 13 -0.7 0.6 -0.6 1 0.2 1.3 0.7 0.3 0.9 1.2 0.7 1.9 -0.5 1.3 5.5 9.9 6.3 9.1 0.2 -0.2 1.5 0.7 2.8 2 4 4 7.6 3.2 13 -2.8 2.6 -2.9 5.1 -6.4 5.6 -7.7 0.9 -2.4 1.1 -2.2 5.3 4 2.4 3.5 7.6 9.5 11.5 13.2 3.9 3.8 7.1 7.1 7.1 7.3 0 0.2 -0.7 0.4 -1.5 0.4 -1 0 -1.5 1 -1.5 3 0 1.6 -0.6 3.3 -1.3 3.7 -1.6 1 -4 8.9 -3.2 10.3 1 1.7 -0.8 1.1 -7.3 -2.3z"/>
  <path d="M437 264.7 c-2.5 -2.8 -5.2 -6.3 -6.2 -7.8 l-1.6 -2.7 6.9 -7.1 6.9 -7.1 -1.7 -3.5 c-0.9 -1.9 -2 -3.5 -2.5 -3.5 -0.4 0 -0.8 -0.9 -0.8 -1.9 0 -1.1 -0.4 -2.2 -0.9 -2.6 -1.7 -1 -4.1 -6.7 -4.1 -9.7 0 -1.5 -0.4 -2.8 -1 -2.8 -0.5 0 -2 -1.7 -3.3 -3.7 -1.8 -2.8 -2.3 -4.8 -1.9 -7.6 0.2 -2 0.8 -4 1.3 -4.3 1.6 -1 1 -2.4 -3.1 -6.7 -4.6 -5.1 -6.5 -9.3 -4.7 -10.4 1.2 -0.8 2.3 -2.3 5.5 -7.7 0.9 -1.6 2.5 -3.7 3.4 -4.7 0.9 -1 1.8 -2.9 2 -4.4 0.3 -2.2 1.1 -1.2 5.6 6.7 9.9 17.6 14.8 38.4 13.8 59.3 -0.5 12.7 -1.8 18.6 -6.3 30.1 l-2.8 7.1 -4.5 -5z"/>
  <path d="M248 237.2 c0 -1 -10 -4.1 -14.4 -4.4 -2.3 -0.2 -3.1 -0.9 -3.7 -2.9 -0.6 -2.3 -0.1 -3.1 4.1 -6.3 3.1 -2.3 5.8 -3.6 7.8 -3.6 2.8 0 12.2 -5.2 13 -7.2 0.6 -1.5 3.2 -0.8 4.4 1.1 0.6 1 1.8 1.7 2.5 1.4 0.7 -0.3 1.3 -0.2 1.3 0.1 0 1.4 -3.4 7.2 -6.6 11.5 -1.9 2.4 -3.9 5.8 -4.6 7.7 -1.1 3 -3.8 4.8 -3.8 2.6z"/>
  <path d="M250.1 195.6 c-1.1 -1.2 -2.1 -2.6 -2.1 -3.2 -0.1 -0.5 -1.9 -2.7 -4 -4.9 -2.2 -2.2 -4 -4.9 -4 -6 0.1 -3.7 4.5 -11 7 -11.3 3.1 -0.5 8.9 2.7 10.6 5.9 0.7 1.5 3.4 4.8 5.9 7.3 4.2 4.2 4.4 5.1 0.8 4.7 -0.7 -0.1 -1.5 1.4 -1.9 3.4 -0.4 2.6 -1.1 3.5 -2.6 3.5 -1 0 -3.2 0.7 -4.7 1.5 -2.6 1.3 -3 1.3 -5 -0.9z"/>
  <path d="M375.6 170.9 c-1 -1.7 -3.3 -3.7 -5.1 -4.5 -2 -0.8 -3.9 -2.6 -4.9 -4.8 -0.9 -1.9 -2.1 -3.8 -2.6 -4.1 -1.1 -0.7 2.2 -7.9 4 -9 1.8 -1.1 0.1 -20.7 -1.9 -22.2 -2.4 -1.8 -3.1 -1.6 -3.1 1.2 0 2.8 -2.1 3.3 -4 1 -1 -1.2 -1.5 -1.2 -3.6 0.2 -2 1.3 -3 1.4 -4.9 0.5 -1.4 -0.7 -2.5 -1.6 -2.5 -2.2 0 -0.6 -2.1 -3.3 -4.6 -6 l-4.6 -4.9 4.9 -6.6 c4.1 -5.5 5.3 -6.5 7.8 -6.5 2.7 0 3.7 0.9 8.2 7.8 6.7 10 16.6 29.1 19.1 36.7 1.9 5.7 2.7 13.1 2.4 22.3 -0.2 5.1 -2 5.5 -4.6 1.1z"/>
  <path d="M412 109.6 c-7 -1.5 -9.3 -2.8 -12.3 -6.9 -7.7 -10.2 -5.4 -25.3 5.2 -33.6 5.1 -4.1 13.4 -7.8 19.3 -8.6 4 -0.6 4.9 -0.4 5.4 1 0.4 1 0.1 2.7 -0.6 3.9 -7.8 12.1 -9.8 21 -7.5 33.2 0.7 4.4 1.7 8.9 2.1 10.2 0.6 2 0.3 2.2 -2.7 2.1 -1.9 0 -5.9 -0.6 -8.9 -1.3z"/>
  <path d="M342 101.3 c-0.8 -0.2 -2.5 -1.7 -3.7 -3.2 -1.9 -2.4 -2 -3.3 -1.2 -7.1 1 -4.3 0.9 -4.4 -3.4 -8.8 -4.2 -4.2 -4.6 -4.3 -6.8 -2.9 -4.6 2.8 -7.7 3 -9.4 0.3 -3.7 -5.6 -3.7 -13.2 -0.1 -12.4 0.8 0.2 3.5 -1.7 6.1 -4.1 4 -3.8 4.6 -4.7 4.2 -7.6 -0.4 -3 -5 -10.4 -6.6 -10.6 -5 -0.6 -7.5 -0.2 -7.8 1.2 -0.4 1.5 -7 4.6 -7.9 3.7 -0.2 -0.3 3 -3.9 7.1 -8.1 l7.5 -7.7 3.7 4.3 c2.1 2.3 3.9 4.4 4 4.6 0.2 0.3 2.5 -1.6 5.1 -4.2 3.3 -3.3 5.6 -4.7 7.5 -4.7 3.2 0 3.1 -0.4 1 5.1 -2.3 6.1 -2.2 25.9 0.1 35.4 0.9 3.8 3.7 11.2 6.1 16.3 2.5 5.2 4.5 9.7 4.5 10 0 0.2 -0.9 0.2 -2 -0.1 -1.1 -0.3 -2.3 -0.1 -2.6 0.4 -0.5 0.9 -2.8 1 -5.4 0.2z"/>
  <path d="M285.3 94.7 c-2.8 -1 -3.2 -1.4 -2.6 -3.6 0.8 -3.4 8 -19.8 9.8 -22.4 1.3 -1.8 1.4 -1.7 2.1 1.9 0.4 2.2 1.2 4.2 1.8 4.6 0.9 0.6 1.6 6.7 1.7 14 0 1 -0.8 2.9 -1.8 4.2 -2 2.8 -5.3 3.1 -11 1.3z"/>
 </g>
 <g fill="#831619">
  <path d="M315.5 336 c-6 -0.4 -0.6 -0.5 12.1 -0.2 16.3 0.3 23.7 0.1 25.2 -0.7 1.2 -0.7 2.2 -0.8 2.2 -0.2 0 0.5 -0.7 1.2 -1.6 1.5 -1.8 0.7 -22.3 0.5 -37.9 -0.4z"/>
  <path d="M253.8 90.8 c-0.6 -1.6 -15.7 -2.9 -17.6 -1.5 -1.6 1.3 -1.6 1.2 -3.1 -5.3 -0.6 -3 -2.9 -9.3 -5 -14 -2.2 -4.7 -3.7 -8.9 -3.4 -9.4 1 -1.6 10.2 0.1 15.8 3 10.4 5.2 17.2 15.4 16.3 24.4 -0.3 3.4 -2.2 5.2 -3 2.8z"/>
  <path d="M323 43.9 c-2.5 -2.9 -4.6 -5.7 -4.8 -6.4 -0.6 -2.4 17 -14.9 25.4 -18.1 7 -2.7 7.5 -1 2.7 8.3 -2.8 5.6 -6 9.7 -11 14.6 -3.8 3.7 -7.1 6.7 -7.4 6.7 -0.2 0 -2.4 -2.3 -4.9 -5.1z"/>
 </g>
 <g fill="#441f29">
 </g>
 <g fill="#551815">
  <path d="M315.6 508.9 c-1 -1.7 -3.8 -4.9 -6.2 -7.1 -3.3 -3.1 -4.4 -4.8 -4.4 -7 0 -2.3 0.3 -2.8 1.3 -2.1 1.4 1.1 8.9 3.8 13.1 4.8 3.6 0.8 5.6 3.3 5 6 -0.3 1.4 0.6 2.7 3.1 4.5 1.9 1.4 3.5 2.8 3.5 3.3 0 0.4 -3.1 0.7 -6.8 0.7 -6.5 0 -6.8 -0.1 -8.6 -3.1z"/>
  <path d="M199 381.3 c0 -1.5 0.8 -5 1.8 -7.8 1.6 -4.4 2.1 -5 5 -5.3 4.1 -0.4 11.2 5.1 11.2 8.7 0 1.7 -0.4 2.2 -1.6 1.7 -2.3 -0.9 -10.5 1.2 -13.6 3.5 l-2.8 2 0 -2.8z"/>
  <path d="M437 378 c0 -2.8 0.3 -3 3.5 -3 4.4 0 4.4 0.9 0 3.8 l-3.5 2.2 0 -3z"/>
  <path d="M432 365.5 c0 -0.8 0.5 -1.5 1.2 -1.5 0.6 0 2.6 -1.1 4.5 -2.6 l3.3 -2.5 0 3.4 c0 3.8 -1.2 4.7 -6.1 4.7 -1.9 0 -2.9 -0.5 -2.9 -1.5z"/>
 </g>
 <g fill="#1a090f">
  <path d="M197.8 610.4 c-1.8 -2.1 -4.1 -4.6 -5 -5.6 -1 -1 -1.8 -3.1 -1.8 -4.8 0 -2.5 0.4 -3 2.5 -3 5.3 0 12.7 -6.1 14.1 -11.5 0.4 -1.8 1.5 -2.5 4.7 -3 7.5 -1.3 19 -1.1 19.4 0.2 0.7 1.9 3.3 -1 3.3 -3.6 0 -1 1.4 -3.4 3.2 -5.1 3 -3.1 3.3 -3.1 9.2 -2.5 9 0.9 9.6 1.2 9.6 4.5 0 2.5 -1.3 3.7 -10.7 10.1 -6 4 -15.9 10.8 -22.1 15.1 -11.2 7.7 -16.6 10.9 -20.9 12.2 -1.7 0.5 -2.9 -0.1 -5.5 -3z"/>
  <path d="M395.5 577.2 c-4.4 -2.9 -16.3 -11.1 -26.5 -18.2 -32.3 -22.6 -40.5 -28.2 -41.7 -28.7 -0.6 -0.3 -2.5 0.5 -4.2 1.7 -3.5 2.7 -6.6 2.2 -12.3 -1.8 -3 -2.2 -3.8 -3.3 -3.8 -5.9 0 -2.2 0.6 -3.6 2 -4.3 1.1 -0.6 2 -2.1 2 -3.4 0 -1.3 0.9 -3.1 1.9 -4 1.1 -1 2.2 -2.8 2.5 -4.2 0.7 -2.5 3.3 -3.3 4.1 -1.1 0.3 0.6 2.3 1.2 4.5 1.3 3.1 0 5.7 1.2 11.3 5.1 3.9 2.7 9.1 6 11.4 7.3 3.6 2 4.2 2.8 4.8 6.5 0.3 2.4 1.2 4.6 2 4.9 0.8 0.3 1.5 1.5 1.5 2.6 0 1.8 0.6 2 5.5 2 6.9 0 10.9 2 12.3 6 0.6 1.6 1.7 3 2.3 3 0.7 0 2.3 0.9 3.5 2.1 1.2 1.1 5.4 2.9 9.3 3.9 7.8 2 13.9 6.2 14 9.6 0.1 1.1 0.6 2.5 1.1 3 0.6 0.6 1 4.6 0.8 9.5 l-0.3 8.5 -8 -5.4z"/>
  <path d="M459.4 534.3 c-0.3 -1 -1.2 -3.1 -2 -4.6 -0.7 -1.6 -1.4 -4.4 -1.4 -6.3 0 -2.8 0.5 -3.6 2.6 -4.4 1.4 -0.6 3.6 -1 5 -1 2.2 0 2.4 -0.4 2.4 -4.4 l0 -4.5 5.8 -1.6 c6.2 -1.8 13.6 -1.5 17.1 0.7 1.9 1.1 2.1 2.3 2.1 10 0 10.2 -0.9 11.4 -7.6 9.5 -5.4 -1.4 -12.2 0.5 -18.1 5 -5 3.8 -5.2 3.9 -5.9 1.6z"/>
  <path d="M426.3 486.1 c-5.1 -3.4 -5.3 -3.6 -5.9 -9.4 -0.4 -3.5 -1.2 -6.1 -2 -6.4 -0.8 -0.3 -1.4 -1.4 -1.4 -2.4 0 -1.8 -5.8 -8.3 -10.8 -12.1 -1.7 -1.4 -2.2 -2.8 -2.2 -6.3 0 -4.8 1.2 -5.8 3 -2.5 1.6 3.1 4.3 2.4 10.3 -2.5 3.1 -2.5 6.4 -4.5 7.4 -4.5 2 0.1 7.1 6.2 7.9 9.7 0.9 3.4 0.1 4.7 -4.9 8 l-4.6 3 8.5 6.2 c4.6 3.5 8.4 6.6 8.4 7 0 1.3 -5.1 8.1 -6 8.1 -0.6 0 -1 1 -1.1 2.3 -0.1 5.3 -1.1 5.6 -6.6 1.8z"/>
  <path d="M261 485 c1.3 -0.9 1.2 -1.2 -0.5 -2.5 -15.4 -10.9 -15.4 -11 -15.4 -14 -0.1 -1.6 0.5 -3.9 1.2 -5 4.2 -7 5.4 -8.5 7 -8.5 0.9 0 5.7 3.1 10.5 6.8 4.8 3.8 10.7 8.1 13 9.7 5.2 3.4 5.5 5.5 0.8 5.5 -4.2 0 -10.2 3.7 -11 6.8 -0.5 1.7 -1.4 2.2 -3.9 2.2 -2.5 0 -2.9 -0.3 -1.7 -1z"/>
  <path d="M215.7 449.8 c-7.5 -5.1 -13.6 -9.6 -13.7 -10 0 -0.5 1.3 -0.8 2.8 -0.8 2.9 0 11.2 -5.2 11.2 -6.9 0 -0.5 0.8 -1.1 1.8 -1.3 1.8 -0.4 6.5 2.6 12 7.6 3.3 3.1 3.3 3.2 2.7 9.6 -0.8 7.8 -1.5 11 -2.4 11 -0.4 0 -6.9 -4.2 -14.4 -9.2z"/>
  <path d="M445.4 438.7 c0.5 -5 0.3 -6.8 -0.8 -8 -3.3 -3.2 -2.3 -4.9 6.4 -10.8 l8.5 -5.8 0.3 3.1 c0.2 2 -0.3 3.8 -1.8 5.3 l-2.1 2.2 4.2 3.7 c2.2 2.1 3.9 3.9 3.7 4 -0.1 0.2 -4.5 3.1 -9.7 6.6 l-9.4 6.3 0.7 -6.6z"/>
  <path d="M322.5 413.1 c-8.9 -5.8 -19.8 -13.4 -24.2 -16.7 -4.5 -3.4 -18.9 -13.3 -32 -22 -13.1 -8.7 -26 -17.7 -28.8 -20 -2.7 -2.3 -8.4 -6.5 -12.5 -9.4 l-7.5 -5.1 -0.3 2.8 c-0.2 1.5 -0.8 4.5 -1.3 6.5 -0.9 3.3 -1.4 3.8 -3.9 3.8 -2 0 -3 -0.5 -3 -1.5 0 -0.8 -0.4 -1.5 -0.9 -1.5 -0.5 0 -1.2 -0.9 -1.6 -1.9 -0.3 -1.1 -1.5 -2.3 -2.6 -2.6 -1 -0.4 -1.9 -1.3 -1.9 -2.1 0 -0.8 -0.6 -1.7 -1.4 -2 -0.8 -0.3 -1.6 -1.8 -1.9 -3.3 -0.9 -4.2 -3.3 -6.2 -6.5 -5.5 -6.4 1.5 -14.2 5.8 -18.8 10.5 -5.2 5.3 -6.9 6 -7.8 3.1 -0.4 -1.1 -1.7 -2.5 -3.1 -3.2 -1.4 -0.7 -2.7 -2.1 -3.1 -3.2 -0.3 -1 -1 -1.8 -1.5 -1.8 -1.8 0 -0.9 -2 2.8 -6.1 5.9 -6.5 15.2 -12.5 23.8 -15.5 14.1 -4.7 24.4 -2.3 40 9.3 11.2 8.3 69.4 47.5 93.4 62.9 l11.2 7.2 4.2 -3.5 c2.3 -2 5.7 -4.3 7.5 -5.1 3.2 -1.6 3.3 -1.5 6.8 1.9 2 1.9 4.4 5.1 5.5 7.1 l1.9 3.7 -3.8 3.1 -3.7 3.1 3.5 3.1 c2.2 1.9 3 3.2 2.2 3.5 -1.4 0.6 -11 7.5 -13.2 9.6 -1.3 1.3 -3.5 0.2 -17.5 -9.2z"/>
  <path d="M481.2 408.9 c0 -9 0.2 -10.3 2.1 -11.8 5.6 -4.4 6.8 -6 6.1 -8.6 -0.5 -1.9 -0.2 -2.5 1 -2.5 2.2 0 3.6 -3.2 3.6 -8.4 0 -3.3 0.4 -4.6 1.4 -4.6 1.2 0 7.6 -6.3 7.6 -7.5 0 -0.2 -0.9 -2 -2 -4 -1.1 -2 -2 -4.9 -2 -6.5 0 -3.6 3 -9.9 4.8 -10 1.8 0 6 9.8 8.5 19.8 1.8 7.3 1.9 9.3 1 15.8 -2 13.8 -13.2 27.4 -30.9 37.7 -0.9 0.5 -1.2 -2.1 -1.2 -9.4z"/>
  <path d="M150.6 401.8 c-6.7 -7.6 -8.9 -14.1 -8.9 -25.8 0 -6.8 0.5 -11.2 1.9 -15.5 2.2 -6.6 1.7 -6.4 12.4 -4.9 6 0.8 7.2 1.9 5.9 5.1 -1.9 5.1 -2.2 16.5 -0.6 20.6 1.9 4.3 3.4 4.6 10.1 1.7 l4.6 -1.9 0 3.8 c0 4.2 -1.9 6.4 -6.1 7.4 -1.4 0.4 -3.6 1.6 -4.9 2.7 -1.3 1.1 -2.8 2 -3.4 2 -0.6 0 -1.8 2.1 -2.6 4.7 -0.8 2.6 -2 4.8 -2.6 5 -0.7 0.2 -3.3 -2 -5.8 -4.9z"/>
  <path d="M374.4 383.2 c-0.6 -0.4 -1.4 -1.9 -1.8 -3.5 -0.9 -3.7 -4.1 -6.7 -7.1 -6.7 -1.4 0 -2.5 -0.3 -2.4 -0.7 0 -0.8 12.3 -9.4 36.2 -25.6 11.2 -7.6 11.9 -7.9 13.3 -6.1 2.3 3 3.4 6.2 3.4 10.2 0 3.1 -0.5 4.1 -3 5.5 -1.6 1 -3.5 2.7 -4 3.8 -0.6 1 -1.9 1.9 -2.9 1.9 -1 0 -7.6 4.5 -14.7 10.1 -14.7 11.4 -15.6 12 -17 11.1z"/>
  <path d="M437.4 362.4 c1.4 -1.5 2.6 -3.5 2.6 -4.4 0 -3.2 -3.3 -16.5 -4.2 -17.1 -0.5 -0.3 -0.3 -0.9 0.6 -1.2 0.9 -0.4 1.6 -1.3 1.6 -2.1 0 -2.9 7.6 -3.6 11.5 -1 1.4 0.9 2.5 2.3 2.5 3 0 0.8 0.7 1.4 1.5 1.4 1.3 0 4.5 8.2 4.5 11.7 0 0.8 0.9 3.1 2 5.3 2.5 4.9 2.5 4.7 -0.7 5.3 -8.5 1.8 -9.6 1.9 -11.9 0.6 -2 -1 -2.9 -1 -4.4 -0.1 -1.1 0.7 -3.4 1.2 -5.1 1.2 l-3.2 0 2.7 -2.6z"/>
  <path d="M472 336.3 c-6 -3.7 -13.6 -4.6 -14.6 -1.8 -1.1 2.9 -2.4 1.5 -2.4 -2.6 0 -4.5 -4.1 -11.4 -7.2 -12.2 -1 -0.3 -1.8 -1.2 -1.8 -2 0 -2 2.3 -2.8 10.5 -3.4 5.6 -0.4 8.5 0 14.5 1.9 9 2.9 10.2 5.1 4.6 8.9 l-3.5 2.4 3 3.1 c2.3 2.3 3 3.9 2.7 6 l-0.3 2.9 -5.5 -3.2z"/>
 </g>
 <g fill="#230409">
  <path d="M481.5 603.5 c-3.7 -4.8 -6 -6.6 -8.6 -7.2 -2.5 -0.5 -2.7 -0.9 -3.4 -8 -0.4 -4.1 -0.5 -7.7 -0.2 -7.9 0.3 -0.3 2.4 0.8 4.8 2.5 2.3 1.7 5 3.1 6 3.1 3.1 0 11.3 -7.4 14.4 -13.1 2.5 -4.7 3 -6.7 3.3 -15.2 0.4 -9.7 0.5 -9.9 2.8 -9.4 1.4 0.2 2.5 -0.1 2.8 -0.9 0.6 -1.6 7.2 -1.9 8.1 -0.5 0.3 0.5 0.2 5.4 -0.1 10.9 -0.6 9.3 -0.9 10.1 -3.1 11.1 -1.3 0.6 -3.2 1.1 -4.3 1.1 -2.1 0 -3.4 3.6 -7.1 19 -1.9 8.4 -2.7 9.9 -6.1 13.3 -4.6 4.3 -6.6 4.6 -9.3 1.2z"/>
  <path d="M437 538.7 c0 -0.7 -0.8 -1.8 -1.7 -2.4 -22.8 -15.4 -43 -30 -59.3 -42.9 -4.2 -3.4 -10.6 -8 -14.1 -10.4 -3.5 -2.4 -8.4 -6 -10.9 -8 -2.5 -2 -10.3 -7.7 -17.5 -12.5 -15.3 -10.5 -34.1 -24.3 -39.3 -28.9 -5.2 -4.5 -12.7 -9.7 -19.7 -13.5 -3.3 -1.8 -7.6 -4.5 -9.5 -5.9 -4.8 -3.7 -8.5 -6.2 -15.6 -10.4 -3.3 -2.1 -6.9 -4.7 -7.9 -5.8 l-2 -2.2 4.2 0.3 c2.4 0.2 4.3 0 4.3 -0.5 0.1 -0.4 -2.3 -2.2 -5.2 -3.9 l-5.3 -3.2 -0.3 -7.3 -0.3 -7.3 5.3 3.7 c2.9 2.1 8 5.8 11.3 8.3 3.3 2.6 13.2 9.4 22 15.3 8.8 5.8 22.8 15.6 31 21.6 26.7 19.7 31.8 23.5 44.5 32.6 17.1 12.2 43.8 32.3 47.5 35.6 1.7 1.5 5.9 4.7 9.5 7 3.6 2.4 12.5 8.8 19.8 14.3 l13.2 10 0 4.3 c0 5 -2 13.4 -3.2 13.4 -0.4 0 -0.8 -0.6 -0.8 -1.3z"/>
  <path d="M262.3 535.7 c-1.5 -0.8 -2.2 -2.3 -2.5 -5.2 -0.3 -2.2 -0.7 -4.7 -1.1 -5.5 -0.4 -1.1 3.1 -4.2 12.3 -10.9 7.1 -5.2 13.5 -9.8 14.2 -10.2 0.9 -0.6 0.6 -1.5 -1.5 -3.7 -3.3 -3.4 -2.4 -4.2 4.6 -4.2 6.6 0 8.7 0.9 8.7 3.6 0 1.3 0.9 3.2 2 4.1 1.1 1 2 2.3 2 3.1 0 0.7 0.7 1.5 1.5 1.8 0.9 0.4 1.5 1.9 1.5 4 0 3.1 -0.2 3.4 -2.4 2.8 -2.5 -0.6 -12.6 5.4 -26.6 15.9 -7.7 5.8 -8.9 6.2 -12.7 4.4z"/>
  <path d="M228.4 526.3 c-0.4 -3 -0.3 -5.3 0.5 -6.5 1.6 -2.6 0.6 -3.7 -4 -4.4 -2.1 -0.4 -3.9 -0.9 -3.9 -1.3 0 -0.5 15.2 -11 17.3 -11.9 0.4 -0.2 0.7 0.3 0.7 1.1 0 1.7 7.5 9.7 9 9.7 2.6 0 0.2 3.1 -7.2 9 -12.7 10.1 -11.6 9.8 -12.4 4.3z"/>
  <path d="M446 501 c-1.9 -1 -6.4 -4.3 -9.9 -7.4 -3.6 -3.1 -6.8 -5.6 -7.3 -5.6 -0.5 0 -0.6 -0.4 -0.3 -1 0.3 -0.5 0.1 -1 -0.4 -1 -0.6 0 -1.1 -0.4 -1.1 -1 0 -0.5 0.8 -1 1.7 -1 1.3 0 1.4 -0.3 0.5 -1.2 -0.7 -0.7 -1.2 -1.9 -1.1 -2.7 0 -1.1 0.2 -1.2 0.6 -0.3 0.3 0.8 2.7 1.2 6.9 1.2 6.4 0 13.9 2.7 15.7 5.7 0.4 0.7 1.5 1.3 2.2 1.3 1.2 0 1.5 1.5 1.5 6.5 0 5.3 -0.3 6.6 -1.9 7.5 -2.5 1.3 -3 1.3 -7.1 -1z"/>
  <path d="M336.5 499.7 c-1.6 -1.2 -6.5 -4.8 -10.9 -8 -4.3 -3.2 -9.9 -6.9 -12.5 -8.2 -2.5 -1.3 -8.4 -5.4 -13.1 -9 -17.7 -13.7 -38.7 -29 -49.2 -35.8 -20.7 -13.4 -38.8 -26.6 -38.8 -28.4 0 -0.7 1.1 -1.5 2.4 -1.9 2.8 -0.7 3.8 -2.5 2.5 -4.5 -0.9 -1.4 -1.3 -6.9 -0.4 -6.9 2.6 0 63.6 42.2 76.5 52.9 3 2.5 8 6.2 11 8.1 3 1.8 13.4 9.2 23 16.4 9.6 7.1 18.9 14 20.7 15.3 l3.2 2.3 -3.4 3.6 c-1.9 2 -3.5 4.2 -3.5 5 0 2.1 -4.1 1.6 -7.5 -0.9z"/>
  <path d="M417.1 481 c-2.9 -1.6 -6 -3.8 -6.8 -4.9 -0.8 -1.2 -2 -2.1 -2.8 -2.1 -0.8 0 -2 -1.2 -2.7 -2.7 -0.7 -1.5 -3.3 -4.2 -5.8 -6.1 -2.5 -1.9 -4.7 -3.8 -4.8 -4.3 -0.5 -1.2 8.2 -9.6 10.7 -10.4 1.1 -0.3 2.3 0 2.8 0.7 0.4 0.7 2.5 2.5 4.5 4.1 3.7 2.7 7.4 7.2 8 9.7 0.2 0.7 1.1 2.1 2 3.1 1 1 1.5 2.6 1.1 3.4 -0.3 0.9 -0.1 2.6 0.5 3.8 1.8 3.7 2 6.2 0.6 7.5 -1.6 1.4 -0.8 1.6 -7.3 -1.8z"/>
  <path d="M407 436.6 c0 -2.5 -4.7 -4.6 -10.5 -4.6 -3 0 -5.5 -0.3 -5.5 -0.7 0 -1 4.8 -4.8 13.5 -10.6 8.6 -5.8 20.7 -14.1 30 -20.6 l7 -5 1.2 2.4 c0.7 1.2 3.1 3.6 5.3 5.3 l4.1 3 -9.3 7.1 c-22.3 16.9 -35.8 25.8 -35.8 23.7z"/>
  <path d="M476.6 406.5 c-0.8 -0.8 -2 -1.5 -2.7 -1.5 -0.7 0 -0.2 -1.1 1.1 -2.5 1.3 -1.4 2.2 -2.6 1.9 -2.8 -0.2 -0.1 -2.8 -1 -5.7 -2 -4.9 -1.7 -5.5 -1.7 -7.1 -0.3 -4 3.7 -7.1 0.2 -7.1 -8 0 -5.5 1.9 -10.2 5.4 -13.1 1.6 -1.4 2.6 -3.3 2.6 -5 0 -2.6 0.2 -2.4 5.3 2.9 6.2 6.5 14.9 11.8 19.4 11.8 1.7 0 3.4 0.4 3.7 0.8 1 1.7 -1.4 8.8 -3.6 10.5 -5.7 4.5 -5.8 4.6 -5.2 7.7 0.6 2.9 0.5 3 -2.9 3 -2 0 -4.2 -0.7 -5.1 -1.5z"/>
 </g>
 <g fill="#1c0409">
  <path d="M180.3 612.6 c-10.2 -3.3 -15.8 -6.9 -24.1 -15.3 -12.7 -13.1 -20 -32.2 -18.9 -50 1 -16.4 6.6 -25.2 23 -36 5.6 -3.7 13.8 -9.5 18.2 -13 4.4 -3.4 14.1 -10.4 21.5 -15.4 14.1 -9.5 31 -21.8 31 -22.5 0 -0.2 -0.9 -1.3 -2 -2.4 -2.1 -2.1 -2.7 -5 -1 -5 0.6 0 0.6 -0.9 -0.1 -2.6 -0.7 -2.1 -0.6 -3.1 0.7 -4.5 1.5 -1.6 1.5 -1.9 0.1 -2.4 -0.9 -0.4 -1.5 -1.9 -1.5 -3.9 l0 -3.3 15.7 10.6 c12 8.2 15.1 10.7 13.4 10.9 -2 0.3 -2.8 1.3 -2 2.6 0.1 0.2 -1 1.4 -2.5 2.6 -1.9 1.4 -3 3.5 -3.4 6 -0.4 2.5 -1.1 3.7 -1.9 3.4 -1.1 -0.5 -14.1 7 -20.5 11.7 -1.4 1 -6.8 4.8 -12 8.4 -5.2 3.6 -12.6 9.2 -16.5 12.5 -3.8 3.2 -7.8 5.9 -8.7 6 -1 0 -2.6 0.8 -3.6 1.8 -1 0.9 -3.9 3.6 -6.5 5.9 -2.8 2.4 -4.7 5 -4.7 6.2 0 1.6 -0.6 2.1 -2.5 2.1 -1.4 0 -2.5 0.3 -2.5 0.8 0 0.4 -1.4 1.3 -3.1 2.1 -4.6 2 -9.7 7.6 -10.8 11.8 -1.6 5.7 -1.3 16.9 0.6 23.2 2 6.8 7.6 15.4 12.5 19.4 3.1 2.5 4 2.8 5.3 1.7 2.5 -2.1 1.8 -3.9 -4 -9.9 -6.8 -7.2 -9.4 -12.8 -9.5 -20.4 0 -5.8 2.9 -13.7 5 -13.7 0.5 0 1.6 1.4 2.5 3 0.9 1.7 2.2 3 3 3 0.7 0 2.1 0.7 3 1.7 1.5 1.5 1.5 1.7 0.1 2.5 -2.5 1.4 -1.9 4.6 2.5 13.3 5.6 10.8 5.7 10.9 8.5 9 2.1 -1.3 2.4 -1.3 3.6 0.4 1.7 2.3 4.4 3.7 9.1 4.5 2 0.4 3.7 1.1 3.7 1.6 0 2.1 -6.3 7.8 -11.6 10.5 l-5.7 2.9 2.9 1.3 c1.6 0.6 3.9 1.2 5.2 1.3 1.3 0 2.2 0.6 2.2 1.5 0 0.8 0.8 2.3 1.8 3.4 0.9 1 3.6 3.9 6 6.3 l4.2 4.6 -4.4 1.1 c-6.7 1.7 -13.3 1.3 -21.3 -1.3z"/>
  <path d="M452.7 614 c-2.1 -0.6 -5.1 -1.7 -6.8 -2.5 -4.9 -2.6 -22.7 -14.4 -34.4 -23 l-11 -8 0.3 -5.5 c0.2 -3 -0.2 -6.4 -0.8 -7.5 -0.6 -1.2 -1 -3.8 -0.8 -5.9 l0.3 -3.8 13.7 10.1 13.8 10.1 -0.6 -6.3 c-0.5 -5.9 -0.8 -6.4 -5.7 -11 -2.9 -2.7 -10.8 -8.7 -17.7 -13.4 -21.2 -14.4 -38.1 -26.5 -49.5 -35.3 -6 -4.7 -12.3 -9.4 -14 -10.5 -2.9 -1.8 -2.9 -1.9 -0.7 -2.3 1.2 -0.2 2.2 -0.9 2.2 -1.6 0 -1.4 5.3 -7.6 6.5 -7.6 0.7 0 8.4 5.3 12.2 8.4 2.1 1.7 15.5 11.2 34 23.9 7 4.8 18.3 12.6 25.1 17.2 6.7 4.7 12.6 8.5 13.1 8.5 1.5 0 4.6 -7.5 4.7 -11.5 0.1 -2.2 0.5 -5.7 0.9 -7.8 0.7 -3.4 0.5 -4.2 -1.9 -6.3 -2.2 -2.1 -3.6 -5.4 -2.1 -5.4 0.2 0 3 1.8 6.1 4 3.2 2.2 6 4 6.4 4 0.4 0 2.8 -1.6 5.3 -3.5 5.1 -3.9 5.4 -4 8.1 -2 1.5 1.1 1.6 1.7 0.7 2.9 -0.9 1.1 -0.7 2.2 1 5 1.1 2 1.8 3.6 1.4 3.6 -0.4 0 -0.3 0.6 0.3 1.3 0.8 1 -0.3 2.6 -4.4 6.7 -3.5 3.5 -6.9 8.2 -9.2 12.9 -3.4 6.8 -3.7 8.3 -4 17.6 -0.4 9.5 -0.2 10.7 2.3 16.4 3.4 7.6 8.3 12.1 12.8 12 3.3 -0.1 9.2 -1.6 6.9 -1.8 -2.7 -0.2 -12.1 -10.3 -13.9 -15 -2.3 -5.8 -2.2 -14.9 0.1 -21.8 l1.8 -5.3 6.4 0 c5.4 0 6.4 0.3 6.4 1.8 0 0.9 -0.7 2.6 -1.5 3.6 -1.7 2.3 -2 11.1 -0.5 15.1 0.5 1.4 2.1 3.7 3.6 5 1.9 1.8 2.7 3.7 3.1 7.9 0.3 3.1 1 5.3 1.4 5 0.9 -0.5 7.1 3.4 7.8 4.9 0.6 1.6 4.6 5.4 6.1 5.9 2.1 0.7 -5.9 6.2 -12.6 8.8 -6.4 2.3 -17.3 3.3 -22.7 2z"/>
  <path d="M229 586.6 c0 -2.4 -6.6 -3.2 -10.7 -1.2 -2.2 1.1 -4.6 1.4 -6.7 1.1 l-3.2 -0.6 0.4 -9.1 c0.3 -5.3 -0.1 -11.4 -0.8 -14.7 -1.7 -7.7 -6.5 -18 -10.1 -21.7 -1.9 -1.9 -2.7 -3.4 -2 -3.8 2 -1.3 14.1 -1.9 14.1 -0.8 0 0.7 2 0.9 5.8 0.6 5 -0.5 5.5 -0.4 4 0.9 -2.2 1.7 -2.2 2.1 -0.2 7.4 l1.7 4.3 3.6 -2.8 c2 -1.6 5.9 -4.2 8.6 -5.9 2.8 -1.6 9.9 -6.4 16 -10.6 10 -7 13.7 -9 13.4 -6.9 -0.1 0.4 -0.1 2.5 0 4.7 0.1 3.4 0.5 4.2 3.1 5.3 1.7 0.8 3 1.8 3 2.2 0 0.5 -5.1 4.3 -11.2 8.5 -6.2 4.1 -14.2 9.6 -17.8 12.1 -3.6 2.5 -8 5.5 -9.7 6.6 -1.8 1.1 -3.3 2.5 -3.4 3.1 -0.2 2.2 0.3 11.2 0.6 11.5 0.1 0.2 4 -2.4 8.6 -5.7 4.6 -3.3 8.4 -5.9 8.5 -5.8 0.1 0.1 0.5 2.4 0.9 5.1 0.5 3.8 0.4 4.8 -0.7 4.4 -1.8 -0.5 -6.8 4.8 -5.6 6 1.4 1.4 -3.2 5.8 -6.9 6.6 -2.6 0.6 -3.3 0.4 -3.3 -0.8z"/>
  <path d="M388.5 556.5 c-1.1 -0.8 -3.5 -1.6 -5.4 -1.9 -1.9 -0.3 -4.6 -1.4 -6 -2.6 -1.4 -1.1 -3.6 -2.4 -4.7 -2.9 -1.2 -0.5 -2.4 -2.1 -2.8 -3.5 -0.7 -3 -5.6 -5.9 -8.8 -5.1 -3.9 0.8 -9.3 -0.9 -9.3 -3 0 -1 -0.6 -2 -1.3 -2.3 -0.6 -0.2 -1.2 -1.2 -1.2 -2.2 0 -1.1 -0.8 -2.3 -1.7 -2.9 -1.5 -0.8 -1.5 -1.1 -0.4 -2.5 1.2 -1.4 1 -2.1 -1.2 -4.4 -1.5 -1.6 -2.7 -3.2 -2.7 -3.6 0 -1.2 4.9 1.9 21.3 13.5 8.1 5.7 18.8 13.1 23.8 16.3 10.2 6.8 11.3 7.9 7.3 7.5 -1.6 -0.2 -3.4 -0.1 -3.9 0.3 -0.6 0.3 -1.9 0 -3 -0.7z"/>
  <path d="M299.5 528 c-0.7 -1.1 1 -2.8 4.8 -5.1 2.4 -1.4 2.1 -3.6 -0.8 -6.3 -1.4 -1.3 -2.5 -2.8 -2.5 -3.4 0 -0.5 -0.7 -1.2 -1.5 -1.6 -0.8 -0.3 -1.5 -1.1 -1.5 -1.8 0 -0.7 -1.2 -2.4 -2.5 -3.7 -1.6 -1.5 -2.3 -3 -2 -4.1 0.4 -1.4 -0.1 -2 -2.4 -2.5 -1.7 -0.4 -4 -0.4 -5.1 0 -1.4 0.4 -3 -0.2 -5.1 -1.9 -1.7 -1.4 -3.4 -2.6 -3.8 -2.6 -1 0 -17.8 12 -24.9 17.7 -6 4.8 -7.1 4.7 -12.6 -1.1 -4.6 -4.9 -5 -7.3 -1.8 -9.3 4.8 -3.1 18.6 -13.4 21.9 -16.4 1.8 -1.6 3.5 -3.9 3.8 -5.2 0.9 -3.1 7.8 -7.2 12.3 -7.2 3.1 0 5.7 1.4 15.7 8.7 14.1 10.2 24.5 19.2 26.8 23 1.4 2.5 1.4 3.2 0.2 6.1 -0.8 1.9 -2.1 3.9 -3 4.7 -0.9 0.7 -1.3 2.1 -1 3.1 0.4 1.2 -0.2 2.3 -2 3.5 -2.4 1.5 -2.4 1.7 -0.8 2.9 2.5 1.8 1.7 2.2 -5.3 3 -4.3 0.5 -6.4 0.4 -6.9 -0.5z"/>
  <path d="M456.8 507.7 c-3.1 -2.3 -6.4 -4.8 -7.5 -5.4 -1.7 -1.2 -1.7 -1.4 0.5 -2.9 2.6 -1.9 3.2 -8.4 0.7 -8.4 -0.7 0 -1.8 -0.6 -2.2 -1.3 -1.5 -2.4 -9.3 -5.7 -13.6 -5.7 -4.3 0 -6.7 -1.3 -6.7 -3.7 0 -0.7 0.9 -1.3 2 -1.3 1.2 0 3 -1.6 4.6 -4 2.6 -3.9 2.6 -3.9 5.3 -2.2 1.4 0.9 6.2 4.4 10.6 7.7 4.4 3.4 12.8 9.5 18.8 13.5 5.9 4.1 10.7 7.6 10.7 7.9 0 0.3 -1.4 2.1 -3.1 3.9 -2.6 2.8 -3.7 3.2 -7.9 3.2 -3.2 0 -5.2 0.5 -5.7 1.4 -0.6 1.2 -2 0.6 -6.5 -2.7z"/>
  <path d="M381 452.9 c-8 -5.5 -21.6 -14.8 -30.2 -20.6 -14.3 -9.5 -15.6 -10.7 -14.5 -12.4 0.6 -1 1.4 -1.9 1.7 -1.9 0.3 0 2.9 -1.8 5.9 -4 2.9 -2.2 6 -4 6.9 -4 0.9 0 3.6 1.9 5.9 4.2 l4.4 4.3 2.2 -2.6 c2.6 -3.1 12.6 -11.4 19.2 -15.9 4.3 -2.9 4.8 -3.1 6.4 -1.6 1.2 1.1 3.6 1.6 7.3 1.6 5.2 0 5.6 0.2 6.2 2.7 0.9 3.2 0.6 3.5 -13.2 13.8 -7.2 5.4 -10.8 8.7 -11 10.3 -0.2 1.3 0.2 2.2 0.9 2.2 0.7 0 2.5 1.2 4 2.6 l2.7 2.6 3.4 -2.6 c2.5 -1.8 5 -2.7 9.4 -3 5.4 -0.5 6.2 -0.3 9.4 2.4 l3.5 2.9 -4.3 3.9 -4.2 3.9 1.8 2.4 c2.2 2.8 3.8 9.9 2.3 9.9 -0.6 0 -3.1 2 -5.7 4.5 -2.5 2.5 -4.9 4.5 -5.2 4.5 -0.4 0 -7.2 -4.5 -15.2 -10.1z"/>
  <path d="M425.3 445.6 c-1.2 -1.4 -2.9 -2.6 -3.8 -2.6 -1.3 0 -1.5 -0.3 -0.7 -1.3 1.3 -1.5 23.7 -17.7 24.6 -17.7 0.3 0 0.6 0.7 0.6 1.5 0 0.8 0.4 1.5 1 1.5 1.9 0 3.1 7.8 1.9 12.1 -1.5 4.9 -5.8 8.8 -7.1 6.5 -0.5 -0.8 -2.2 -2.5 -3.9 -3.6 l-3 -2.2 -3.8 4.2 -3.8 4.2 -2 -2.6z"/>
  <path d="M188.4 431.3 c-15.3 -10.3 -26.8 -18.8 -32.6 -24.1 -2.4 -2.2 -2.6 -2.7 -1.3 -4.6 1.2 -1.8 2.1 -4.7 2.4 -7.8 0.1 -0.5 0.7 -0.8 1.4 -0.8 0.8 0 2.4 -0.9 3.7 -2 1.3 -1.1 3.5 -2.3 4.9 -2.7 3.4 -0.7 6.1 -3.2 6.1 -5.3 0 -0.9 1.1 -2.2 2.4 -2.8 3.6 -1.6 9.4 -7.1 13.6 -12.7 4.7 -6.4 10 -20.1 10 -25.9 0 -2.5 0.4 -4.8 1 -5.1 1.4 -0.8 5 1.3 5 3 0 0.7 0.9 1.6 1.9 2 1.1 0.3 2.3 1.5 2.6 2.6 0.4 1 1.1 1.9 1.6 1.9 0.5 0 0.9 0.7 0.9 1.5 0 0.8 0.9 1.5 2 1.5 1.9 0 1.9 0.2 0.6 3.4 -1.2 3 -1.2 3.6 0.2 5 1.5 1.5 1.4 1.6 -0.9 1.6 -3.8 0 -4.9 1.8 -4.9 7.8 0 4.7 -0.2 5.3 -1.5 4.2 -1.2 -1 -1.6 -0.7 -2.6 1.6 -0.9 2.5 -3.6 8.5 -4.7 10.5 -0.1 0.4 3.8 3.6 8.8 7.2 7.8 5.6 14.1 12.1 14 14.5 -0.1 1.4 -3.6 4.7 -6.2 5.9 -2.5 1.1 -3.4 0.9 -8 -1.8 -2.8 -1.7 -7 -4.5 -9.2 -6.4 -2.3 -1.8 -5.9 -4.2 -8 -5.4 l-4 -2 -3.5 2.1 c-2 1.2 -4 2.5 -4.5 2.9 -0.9 0.8 15.6 13.1 32.3 24.2 9.2 6.1 11.9 8.7 8.7 8.7 -0.9 0 -1.6 0.4 -1.6 1 0 0.5 -1.9 2.3 -4.2 4 -6.7 4.9 -8.3 4.4 -26.4 -7.7z"/>
  <path d="M467.4 423.5 c-3.1 -1.4 -8.4 -6.8 -8.4 -8.5 0 -0.5 1 -1.5 2.3 -2.1 1.2 -0.7 4.9 -3.4 8.2 -6.1 5.8 -4.7 9.5 -6.1 9.5 -3.5 0 0.8 0.4 0.7 1 -0.3 0.8 -1.3 1 -1.2 1 0.3 0 0.9 0.5 1.7 1 1.7 0.6 0 1 -0.5 1 -1.1 0 -0.5 0.5 -0.7 1 -0.4 1.1 0.7 1.3 6.6 0.4 11.1 -0.4 2 -2.2 4.1 -5.7 6.7 -5.5 4 -6.6 4.2 -11.3 2.2z"/>
  <path d="M443.2 404.2 c-2.3 -2.2 -4.2 -4.6 -4.2 -5.5 0 -1.3 3.6 -4.4 16.8 -14.3 0.8 -0.5 -4.3 -6.4 -5.5 -6.4 -0.7 0 -1.3 -0.7 -1.3 -1.5 0 -1 1 -1.5 2.8 -1.5 4.3 0 4.4 -0.9 0.7 -5.5 -2.1 -2.5 -3.5 -5.3 -3.5 -7 0 -2.2 0.3 -2.5 1.3 -1.6 0.8 0.6 1.7 0.8 2 0.5 0.9 -1 8.7 -2.2 8.7 -1.5 0 0.4 1.5 3.2 3.4 6.3 4.9 8.2 5.1 9.8 1.5 12.7 -1.6 1.3 -3.5 3.3 -4.1 4.4 -1.4 2.7 -1.9 8.7 -0.7 8.7 0.6 0 0.8 0.4 0.4 0.9 -0.3 0.5 0.2 1.7 1.1 2.6 0.9 0.9 1.3 2 0.8 2.4 -2.6 2.3 -14.3 10.1 -15.1 10.1 -0.5 0 -2.8 -1.7 -5.1 -3.8z"/>
  <path d="M405.2 401.8 c-0.7 -0.7 -1.2 -1.7 -1.2 -2.4 0 -0.6 -0.7 -1.7 -1.5 -2.4 -0.9 -0.8 -1.5 -2.9 -1.5 -5.5 0 -4 0.4 -4.7 6.2 -9.9 7.4 -6.7 10.8 -7.4 10.8 -2.3 0 3.6 3.2 7.7 4.5 5.8 0.6 -1.1 7.5 -1.6 7.5 -0.6 0 2.2 -11.2 11 -22.6 17.8 -0.6 0.3 -1.6 0.1 -2.2 -0.5z"/>
  <path d="M496.2 376.9 c-1.5 -0.6 -2.2 -1.7 -2.2 -3.4 0 -4.2 -5.9 -20.8 -8.8 -24.6 -1.5 -2 -6 -7.3 -9.9 -11.8 -4 -4.5 -7.3 -8.8 -7.3 -9.6 0 -0.8 1.2 -2.5 2.7 -3.8 1.4 -1.2 3.5 -3 4.5 -4 1.9 -1.8 2.1 -1.7 6.6 0.9 6.6 3.9 14.4 11.5 19.8 19.5 l4.7 6.8 -2.2 4.2 c-2.1 3.9 -2.1 4.2 -0.5 6 0.9 1.1 1.4 1.9 1 1.9 -0.4 0 0.2 1.2 1.3 2.6 1.9 2.5 2 2.8 0.4 5.8 -0.8 1.7 -3 4.7 -4.8 6.7 -2.6 2.9 -3.6 3.4 -5.3 2.8z"/>
  <path d="M159.4 360.7 c-1.1 -0.6 -3.3 -1 -5 -0.8 -1.8 0.1 -3.5 -0.3 -3.9 -0.8 -0.3 -0.6 -1.1 -0.9 -1.6 -0.6 -0.5 0.4 -0.9 0.1 -0.9 -0.4 0 -0.6 -0.7 -1.1 -1.5 -1.1 -0.8 0 -1.5 -0.2 -1.5 -0.5 0 -1.6 5.8 -11.8 9.8 -17.2 l4.5 -6.2 1.8 2.2 c2.7 3.2 3.4 4 5.5 5.9 3.8 3.4 4.3 4.4 2.9 5.9 -0.7 0.8 -2.9 4.4 -4.8 8 -3 5.8 -3.7 6.5 -5.3 5.6z"/>
  <path d="M407.3 360.4 c0 -0.8 0.4 -1.4 0.9 -1.4 0.4 0 0.8 -0.5 0.8 -1.1 0 -0.6 0.9 -2.4 2 -3.9 2.2 -3.1 2 -7 -0.6 -9.1 -2.8 -2.3 -1.4 -4.6 6.1 -9.8 4.8 -3.3 7.5 -4.7 7.5 -3.8 0 0.8 1.3 2 2.9 2.7 2.4 0.9 3.4 0.9 6 -0.4 3.1 -1.7 3.8 -3.3 4.3 -9.6 0.3 -3.1 0.9 -3.8 5.5 -6.2 4.4 -2.2 5.7 -2.4 7.7 -1.5 3.3 1.6 10 11.4 8.9 13 -1.9 2.5 -3.5 9.6 -3.1 13.6 0.2 2.9 -0.1 4.2 -1.1 4.6 -1.3 0.5 -3 -1 -3.1 -2.7 0 -0.5 -0.7 -0.8 -1.5 -0.8 -0.8 0 -1.5 -0.6 -1.5 -1.4 0 -1.9 -4.5 -4.7 -6.4 -4 -0.9 0.3 -1.4 0.9 -1.1 1.4 0.2 0.4 -0.7 1.7 -2 2.8 -2.4 2.1 -2.5 2.1 -2.5 0.2 0 -1.1 -0.3 -2 -0.8 -2 -1 0 -10.8 6.6 -15.8 10.7 -2.3 1.8 -4.6 3.3 -5.2 3.3 -0.6 0 -2.6 1.5 -4.5 3.4 -1.9 1.8 -3.4 2.7 -3.4 2z"/>
 </g>
 <g fill="#140408">
  <path d="M490.7 601.4 c-1 -1 -0.9 -6.4 0.2 -6.4 0.8 0 2 -3.9 3.6 -11.5 0.8 -3.8 3.4 -13 4.4 -15.7 1.1 -2.9 2.5 -3.6 3.6 -1.8 0.4 0.6 1.5 0.5 3 -0.2 2.1 -0.9 2.4 -1.8 2.7 -8.2 0.4 -7.9 -0.5 -10.3 -2.3 -6.3 -0.9 2.1 -1.8 2.6 -3.7 2.2 -3.4 -0.6 -3.4 -0.7 -4.4 -7.5 -1 -8 -3 -11.5 -8.4 -15.3 -4.4 -3.1 -5.5 -5.2 -3.1 -5.9 0.8 -0.3 1.2 -2.7 1.2 -7.2 0 -6.3 -0.1 -6.7 -2.5 -7.2 -1.4 -0.3 -3.1 -0.8 -3.8 -1 -0.8 -0.2 -3.8 0.3 -6.8 1.2 l-5.4 1.5 0 4.3 c0 4.3 0 4.3 -4.2 4.9 -2.3 0.3 -4.7 1.2 -5.3 2 -0.8 1.2 -1.3 1.1 -2.9 -0.4 -1 -1 -2.4 -1.5 -3.2 -1.2 -2.8 1.1 -1.3 -0.7 4.1 -4.8 5.3 -4 5.5 -4.3 3.9 -6 -2.8 -3.1 -1.1 -4.9 4.6 -4.9 4.3 0 5.4 -0.4 7.7 -3 1.4 -1.7 3.1 -3 3.6 -3 1.9 0 23.4 16.9 27.7 21.7 9.1 10.3 13.4 24.6 11.2 37.5 -1.3 7.2 -2.7 10.8 -10 24.3 -3.9 7.3 -14.2 19.2 -15.5 17.9z"/>
  <path d="M193.5 582.3 c-4.2 -0.9 -7.1 -2.4 -8.4 -4.4 -1.1 -1.8 -1 -2.4 0.8 -4.3 2.5 -2.6 2.8 -8.1 0.7 -13 -2.3 -5.6 -12.1 -10.9 -14.1 -7.6 -0.4 0.6 -1.2 0.4 -2.1 -0.5 -0.9 -0.8 -2.2 -1.5 -3 -1.5 -0.8 0 -2.2 -1.6 -3.1 -3.6 l-1.8 -3.6 3.8 -3.4 c2.8 -2.6 4.5 -3.4 7.5 -3.4 10.1 0 19.2 6.2 24.4 16.8 2.8 5.6 3.4 7.9 3.6 15.2 0.5 12.8 -0.8 15 -8.3 13.3z"/>
  <path d="M254 578.1 c0 -2.1 -2.8 -3.7 -4.2 -2.3 -1.3 1.3 -7.7 -1.8 -8.4 -4 -0.3 -1 -0.1 -2.5 0.4 -3.4 1 -1.9 16.2 -13.2 27 -20.2 4 -2.6 12.8 -8.7 19.5 -13.6 6.7 -4.9 12.9 -9 13.7 -9.1 0.9 0 2.1 -0.5 2.8 -0.9 1.8 -1.1 6 0.1 9.1 2.6 1.4 1.1 4.2 2.6 6.1 3.4 l3.4 1.5 -5.1 3.2 c-4.9 3 -15.3 10.5 -35.8 25.7 -9.7 7.1 -27.2 19 -28 19 -0.3 0 -0.5 -0.9 -0.5 -1.9z"/>
  <path d="M473.3 576.6 c-3 -1.4 -2.9 -2.5 0.7 -9.6 3.1 -6.2 3.7 -9.8 2 -13.1 -1.5 -2.7 -2.2 -2.4 -6.9 2.2 -3 3.1 -4.1 3.7 -4.1 2.4 0 -1.6 -0.7 -1.7 -5.5 -1.2 -3 0.3 -5.5 0.2 -5.5 -0.3 0 -2.1 9.3 -13 13.6 -15.9 6.3 -4.1 8.2 -4.5 14 -2.9 5.9 1.6 8.1 4.6 9.4 12.2 1.1 6.8 -0.7 17.6 -3.6 22.1 -3.2 4.9 -9.1 6.6 -14.1 4.1z"/>
  <path d="M207.6 539.5 c-1.2 -1.2 -2.3 -1.3 -5.7 -0.6 -4.1 0.9 -4.5 0.8 -8.1 -2.4 -2 -1.9 -6.1 -4.6 -9 -6.1 -4.8 -2.4 -5.9 -2.6 -13 -2.1 -4.3 0.4 -7.8 0.4 -7.8 0.1 0 -2 2.4 -4.4 4.5 -4.4 1.9 0 2.5 -0.5 2.5 -2.1 0 -1.2 1.9 -3.8 4.7 -6.2 2.6 -2.3 5.7 -5.2 7 -6.5 1.2 -1.3 3 -2.2 4 -2 1 0.1 2.4 -0.1 3 -0.5 0.7 -0.5 2 -0.4 2.9 0.1 1.4 0.8 1.1 1.3 -1.7 3.4 l-3.2 2.6 3.1 1.6 c1.7 0.9 6 3.8 9.5 6.4 l6.4 4.9 8.3 -7 c7.8 -6.5 8.6 -6.9 12.2 -6.4 2.1 0.3 4.5 1.1 5.3 1.7 1.9 1.5 1.9 6.4 0.2 7.9 -0.8 0.6 -1.2 2.3 -0.9 3.9 0.3 2.4 -0.3 3.5 -3.4 6.1 -2.1 1.7 -4.2 3.1 -4.6 3.1 -0.4 0 -2.7 1.4 -5.1 3 -4.9 3.3 -8.7 3.8 -11.1 1.5z"/>
  <path d="M430 454.1 c0 -1 -1.1 -3.5 -2.5 -5.5 l-2.5 -3.7 2.5 -3.4 c1.5 -1.8 3.3 -3.6 4.1 -3.9 0.8 -0.3 1.3 -1 0.9 -1.5 -0.7 -1.2 3.2 -3.4 4.5 -2.6 0.6 0.3 1 1.2 1 1.9 0 0.8 1.6 2.6 3.5 4 4.3 3.3 4.4 5.6 0.5 7.9 -1.6 1 -5 3.3 -7.5 5.2 -3.8 3 -4.5 3.2 -4.5 1.6z"/>
  <path d="M455.7 430.2 c-4.4 -4.5 -4.6 -6 -1.2 -10 1.4 -1.7 2.5 -3.4 2.5 -3.9 0 -0.5 1.1 -1.6 2.4 -2.3 2.3 -1.2 2.7 -1 5.2 1.9 3 3.6 8.6 6.3 11.1 5.4 0.9 -0.4 1.4 -0.2 1.2 0.5 -0.5 1.5 -14.8 12.2 -16.3 12.2 -0.6 0 -2.9 -1.7 -4.9 -3.8z"/>
  <path d="M399.4 405.6 c-0.6 -2.4 -1.1 -2.6 -6.1 -2.6 -3.6 0 -6.2 -0.6 -7.7 -1.7 l-2.3 -1.8 7.7 -5.3 c4.3 -2.9 10.8 -8 14.6 -11.3 6.5 -5.7 19.3 -14.9 20.9 -14.9 0.4 0 1.8 -0.9 3.2 -2 1.4 -1.1 3.3 -2 4.3 -2 1 0 2.9 -0.9 4.3 -2 1.7 -1.3 4 -2 7 -2 4.2 0 4.8 0.3 9.6 5.9 7.4 8.5 6.7 12.1 -2.3 12.1 -2.8 0 -5.8 -0.4 -6.5 -0.9 -1.9 -1.2 -4.5 0.1 -9.1 4.4 -1.9 1.7 -5.1 3.8 -7 4.5 -1.9 0.7 -4.2 1.9 -5.1 2.7 -0.8 0.7 -2.5 1.3 -3.5 1.3 -2.4 0 -7.4 -4.9 -7.4 -7.2 0 -0.9 -0.4 -2 -1 -2.3 -0.5 -0.3 -1 0.1 -1 0.9 0 0.8 -1.5 2.2 -3.4 3.1 -4 1.9 -5.7 6.5 -3.4 9.3 1.8 2.2 4.2 7.1 3.7 7.5 -0.2 0.2 -2.3 1.8 -4.6 3.6 l-4.2 3.2 -0.7 -2.5z"/>
  <path d="M350.5 399.9 c-1.1 -3.4 -8.5 -10.9 -10.8 -10.9 -1.6 0 -1.3 -0.5 1.4 -2.3 1.9 -1.3 8.1 -5.6 13.8 -9.5 11.2 -7.7 14.6 -8.7 18.1 -5.2 1.1 1.1 2.3 3.4 2.7 5 0.3 1.7 0.9 3 1.4 3 1.9 0 0.7 2.7 -1.8 4.2 -1.6 1 -7.3 5.3 -12.8 9.7 -5.5 4.4 -10.3 8.1 -10.7 8.1 -0.4 0 -1 -1 -1.3 -2.1z"/>
  <path d="M236.9 394.9 c-4.1 -2.8 -8.7 -6.3 -10.4 -7.8 -1.6 -1.5 -5.7 -4.7 -9 -7.1 -10.8 -7.8 -11.5 -8.6 -11.5 -15 0 -9.6 3.5 -10.4 13.5 -3.2 3.7 2.6 9.7 6.7 13.3 9.2 6.5 4.4 6.7 4.7 7.2 9.5 0.5 4.8 0.7 5.1 6.5 8.6 6.2 3.7 7.8 6.6 5.5 9.5 -2.4 2.8 -7.3 1.6 -15.1 -3.7z"/>
  <path d="M424.3 337.2 c-6 -2.9 -4.1 -5.5 10.7 -14.9 12 -7.7 18.8 -9.2 9.6 -2.2 -4.4 3.4 -5 5 -3.2 9.2 0.6 1.2 0.1 2.4 -1.5 4.1 -4.9 4.7 -10.8 6.2 -15.6 3.8z"/>
 </g>
</svg>